<?xml version="1.0" encoding="utf-8" standalone="no"?>
<!DOCTYPE svg PUBLIC "-//W3C//DTD SVG 1.1//EN"
  "http://www.w3.org/Graphics/SVG/1.1/DTD/svg11.dtd">
<svg xmlns:xlink="http://www.w3.org/1999/xlink" width="460.8pt" height="345.6pt" viewBox="0 0 460.8 345.6" xmlns="http://www.w3.org/2000/svg" version="1.1">
 <metadata>
  <rdf:RDF xmlns:dc="http://purl.org/dc/elements/1.1/" xmlns:cc="http://creativecommons.org/ns#" xmlns:rdf="http://www.w3.org/1999/02/22-rdf-syntax-ns#">
   <cc:Work>
    <dc:type rdf:resource="http://purl.org/dc/dcmitype/StillImage"/>
    <dc:date>2024-07-31T10:57:18.846002</dc:date>
    <dc:format>image/svg+xml</dc:format>
    <dc:creator>
     <cc:Agent>
      <dc:title>Matplotlib v3.8.4, https://matplotlib.org/</dc:title>
     </cc:Agent>
    </dc:creator>
   </cc:Work>
  </rdf:RDF>
 </metadata>
 <defs>
  <style type="text/css">*{stroke-linejoin: round; stroke-linecap: butt}</style>
 </defs>
 <g id="figure_1">
  <g id="patch_1">
   <path d="M 0 345.6 
L 460.8 345.6 
L 460.8 0 
L 0 0 
z
" style="fill: #ffffff"/>
  </g>
  <g id="axes_1">
   <g id="patch_2">
    <path d="M 57.6 307.584 
L 414.72 307.584 
L 414.72 41.472 
L 57.6 41.472 
z
" style="fill: #e5e5e5"/>
   </g>
   <g id="matplotlib.axis_1">
    <g id="xtick_1">
     <g id="line2d_1">
      <path d="M 57.6 307.584 
L 57.6 41.472 
" clip-path="url(#ped5ab95f92)" style="fill: none; stroke: #ffffff; stroke-width: 1.5; stroke-linecap: round"/>
     </g>
     <g id="text_1">
      <!-- 0.0 -->
      <g style="fill: #555555" transform="translate(44.479922 332.621422) scale(0.165 -0.165)">
       <defs>
        <path id="DejaVuSans-30" d="M 2034 4250 
Q 1547 4250 1301 3770 
Q 1056 3291 1056 2328 
Q 1056 1369 1301 889 
Q 1547 409 2034 409 
Q 2525 409 2770 889 
Q 3016 1369 3016 2328 
Q 3016 3291 2770 3770 
Q 2525 4250 2034 4250 
z
M 2034 4750 
Q 2819 4750 3233 4129 
Q 3647 3509 3647 2328 
Q 3647 1150 3233 529 
Q 2819 -91 2034 -91 
Q 1250 -91 836 529 
Q 422 1150 422 2328 
Q 422 3509 836 4129 
Q 1250 4750 2034 4750 
z
" transform="scale(0.015625)"/>
        <path id="DejaVuSans-2e" d="M 684 794 
L 1344 794 
L 1344 0 
L 684 0 
L 684 794 
z
" transform="scale(0.015625)"/>
       </defs>
       <use xlink:href="#DejaVuSans-30"/>
       <use xlink:href="#DejaVuSans-2e" x="63.623047"/>
       <use xlink:href="#DejaVuSans-30" x="95.410156"/>
      </g>
     </g>
    </g>
    <g id="xtick_2">
     <g id="line2d_2">
      <path d="M 129.024 307.584 
L 129.024 41.472 
" clip-path="url(#ped5ab95f92)" style="fill: none; stroke: #ffffff; stroke-width: 1.5; stroke-linecap: round"/>
     </g>
     <g id="text_2">
      <!-- 0.2 -->
      <g style="fill: #555555" transform="translate(115.903922 332.621422) scale(0.165 -0.165)">
       <defs>
        <path id="DejaVuSans-32" d="M 1228 531 
L 3431 531 
L 3431 0 
L 469 0 
L 469 531 
Q 828 903 1448 1529 
Q 2069 2156 2228 2338 
Q 2531 2678 2651 2914 
Q 2772 3150 2772 3378 
Q 2772 3750 2511 3984 
Q 2250 4219 1831 4219 
Q 1534 4219 1204 4116 
Q 875 4013 500 3803 
L 500 4441 
Q 881 4594 1212 4672 
Q 1544 4750 1819 4750 
Q 2544 4750 2975 4387 
Q 3406 4025 3406 3419 
Q 3406 3131 3298 2873 
Q 3191 2616 2906 2266 
Q 2828 2175 2409 1742 
Q 1991 1309 1228 531 
z
" transform="scale(0.015625)"/>
       </defs>
       <use xlink:href="#DejaVuSans-30"/>
       <use xlink:href="#DejaVuSans-2e" x="63.623047"/>
       <use xlink:href="#DejaVuSans-32" x="95.410156"/>
      </g>
     </g>
    </g>
    <g id="xtick_3">
     <g id="line2d_3">
      <path d="M 200.448 307.584 
L 200.448 41.472 
" clip-path="url(#ped5ab95f92)" style="fill: none; stroke: #ffffff; stroke-width: 1.5; stroke-linecap: round"/>
     </g>
     <g id="text_3">
      <!-- 0.4 -->
      <g style="fill: #555555" transform="translate(187.327922 332.621422) scale(0.165 -0.165)">
       <defs>
        <path id="DejaVuSans-34" d="M 2419 4116 
L 825 1625 
L 2419 1625 
L 2419 4116 
z
M 2253 4666 
L 3047 4666 
L 3047 1625 
L 3713 1625 
L 3713 1100 
L 3047 1100 
L 3047 0 
L 2419 0 
L 2419 1100 
L 313 1100 
L 313 1709 
L 2253 4666 
z
" transform="scale(0.015625)"/>
       </defs>
       <use xlink:href="#DejaVuSans-30"/>
       <use xlink:href="#DejaVuSans-2e" x="63.623047"/>
       <use xlink:href="#DejaVuSans-34" x="95.410156"/>
      </g>
     </g>
    </g>
    <g id="xtick_4">
     <g id="line2d_4">
      <path d="M 271.872 307.584 
L 271.872 41.472 
" clip-path="url(#ped5ab95f92)" style="fill: none; stroke: #ffffff; stroke-width: 1.5; stroke-linecap: round"/>
     </g>
     <g id="text_4">
      <!-- 0.6 -->
      <g style="fill: #555555" transform="translate(258.751922 332.621422) scale(0.165 -0.165)">
       <defs>
        <path id="DejaVuSans-36" d="M 2113 2584 
Q 1688 2584 1439 2293 
Q 1191 2003 1191 1497 
Q 1191 994 1439 701 
Q 1688 409 2113 409 
Q 2538 409 2786 701 
Q 3034 994 3034 1497 
Q 3034 2003 2786 2293 
Q 2538 2584 2113 2584 
z
M 3366 4563 
L 3366 3988 
Q 3128 4100 2886 4159 
Q 2644 4219 2406 4219 
Q 1781 4219 1451 3797 
Q 1122 3375 1075 2522 
Q 1259 2794 1537 2939 
Q 1816 3084 2150 3084 
Q 2853 3084 3261 2657 
Q 3669 2231 3669 1497 
Q 3669 778 3244 343 
Q 2819 -91 2113 -91 
Q 1303 -91 875 529 
Q 447 1150 447 2328 
Q 447 3434 972 4092 
Q 1497 4750 2381 4750 
Q 2619 4750 2861 4703 
Q 3103 4656 3366 4563 
z
" transform="scale(0.015625)"/>
       </defs>
       <use xlink:href="#DejaVuSans-30"/>
       <use xlink:href="#DejaVuSans-2e" x="63.623047"/>
       <use xlink:href="#DejaVuSans-36" x="95.410156"/>
      </g>
     </g>
    </g>
    <g id="xtick_5">
     <g id="line2d_5">
      <path d="M 343.296 307.584 
L 343.296 41.472 
" clip-path="url(#ped5ab95f92)" style="fill: none; stroke: #ffffff; stroke-width: 1.5; stroke-linecap: round"/>
     </g>
     <g id="text_5">
      <!-- 0.8 -->
      <g style="fill: #555555" transform="translate(330.175922 332.621422) scale(0.165 -0.165)">
       <defs>
        <path id="DejaVuSans-38" d="M 2034 2216 
Q 1584 2216 1326 1975 
Q 1069 1734 1069 1313 
Q 1069 891 1326 650 
Q 1584 409 2034 409 
Q 2484 409 2743 651 
Q 3003 894 3003 1313 
Q 3003 1734 2745 1975 
Q 2488 2216 2034 2216 
z
M 1403 2484 
Q 997 2584 770 2862 
Q 544 3141 544 3541 
Q 544 4100 942 4425 
Q 1341 4750 2034 4750 
Q 2731 4750 3128 4425 
Q 3525 4100 3525 3541 
Q 3525 3141 3298 2862 
Q 3072 2584 2669 2484 
Q 3125 2378 3379 2068 
Q 3634 1759 3634 1313 
Q 3634 634 3220 271 
Q 2806 -91 2034 -91 
Q 1263 -91 848 271 
Q 434 634 434 1313 
Q 434 1759 690 2068 
Q 947 2378 1403 2484 
z
M 1172 3481 
Q 1172 3119 1398 2916 
Q 1625 2713 2034 2713 
Q 2441 2713 2670 2916 
Q 2900 3119 2900 3481 
Q 2900 3844 2670 4047 
Q 2441 4250 2034 4250 
Q 1625 4250 1398 4047 
Q 1172 3844 1172 3481 
z
" transform="scale(0.015625)"/>
       </defs>
       <use xlink:href="#DejaVuSans-30"/>
       <use xlink:href="#DejaVuSans-2e" x="63.623047"/>
       <use xlink:href="#DejaVuSans-38" x="95.410156"/>
      </g>
     </g>
    </g>
    <g id="xtick_6">
     <g id="line2d_6">
      <path d="M 414.72 307.584 
L 414.72 41.472 
" clip-path="url(#ped5ab95f92)" style="fill: none; stroke: #ffffff; stroke-width: 1.5; stroke-linecap: round"/>
     </g>
     <g id="text_6">
      <!-- 1.0 -->
      <g style="fill: #555555" transform="translate(401.599922 332.621422) scale(0.165 -0.165)">
       <defs>
        <path id="DejaVuSans-31" d="M 794 531 
L 1825 531 
L 1825 4091 
L 703 3866 
L 703 4441 
L 1819 4666 
L 2450 4666 
L 2450 531 
L 3481 531 
L 3481 0 
L 794 0 
L 794 531 
z
" transform="scale(0.015625)"/>
       </defs>
       <use xlink:href="#DejaVuSans-31"/>
       <use xlink:href="#DejaVuSans-2e" x="63.623047"/>
       <use xlink:href="#DejaVuSans-30" x="95.410156"/>
      </g>
     </g>
    </g>
   </g>
   <g id="matplotlib.axis_2">
    <g id="ytick_1">
     <g id="line2d_7">
      <path d="M 57.6 307.584 
L 414.72 307.584 
" clip-path="url(#ped5ab95f92)" style="fill: none; stroke: #ffffff; stroke-width: 1.5; stroke-linecap: round"/>
     </g>
     <g id="text_7">
      <!-- 0.0 -->
      <g style="fill: #555555" transform="translate(18.859844 313.852711) scale(0.165 -0.165)">
       <use xlink:href="#DejaVuSans-30"/>
       <use xlink:href="#DejaVuSans-2e" x="63.623047"/>
       <use xlink:href="#DejaVuSans-30" x="95.410156"/>
      </g>
     </g>
    </g>
    <g id="ytick_2">
     <g id="line2d_8">
      <path d="M 57.6 254.3616 
L 414.72 254.3616 
" clip-path="url(#ped5ab95f92)" style="fill: none; stroke: #ffffff; stroke-width: 1.5; stroke-linecap: round"/>
     </g>
     <g id="text_8">
      <!-- 0.2 -->
      <g style="fill: #555555" transform="translate(18.859844 260.630311) scale(0.165 -0.165)">
       <use xlink:href="#DejaVuSans-30"/>
       <use xlink:href="#DejaVuSans-2e" x="63.623047"/>
       <use xlink:href="#DejaVuSans-32" x="95.410156"/>
      </g>
     </g>
    </g>
    <g id="ytick_3">
     <g id="line2d_9">
      <path d="M 57.6 201.1392 
L 414.72 201.1392 
" clip-path="url(#ped5ab95f92)" style="fill: none; stroke: #ffffff; stroke-width: 1.5; stroke-linecap: round"/>
     </g>
     <g id="text_9">
      <!-- 0.4 -->
      <g style="fill: #555555" transform="translate(18.859844 207.407911) scale(0.165 -0.165)">
       <use xlink:href="#DejaVuSans-30"/>
       <use xlink:href="#DejaVuSans-2e" x="63.623047"/>
       <use xlink:href="#DejaVuSans-34" x="95.410156"/>
      </g>
     </g>
    </g>
    <g id="ytick_4">
     <g id="line2d_10">
      <path d="M 57.6 147.9168 
L 414.72 147.9168 
" clip-path="url(#ped5ab95f92)" style="fill: none; stroke: #ffffff; stroke-width: 1.5; stroke-linecap: round"/>
     </g>
     <g id="text_10">
      <!-- 0.6 -->
      <g style="fill: #555555" transform="translate(18.859844 154.185511) scale(0.165 -0.165)">
       <use xlink:href="#DejaVuSans-30"/>
       <use xlink:href="#DejaVuSans-2e" x="63.623047"/>
       <use xlink:href="#DejaVuSans-36" x="95.410156"/>
      </g>
     </g>
    </g>
    <g id="ytick_5">
     <g id="line2d_11">
      <path d="M 57.6 94.6944 
L 414.72 94.6944 
" clip-path="url(#ped5ab95f92)" style="fill: none; stroke: #ffffff; stroke-width: 1.5; stroke-linecap: round"/>
     </g>
     <g id="text_11">
      <!-- 0.8 -->
      <g style="fill: #555555" transform="translate(18.859844 100.963111) scale(0.165 -0.165)">
       <use xlink:href="#DejaVuSans-30"/>
       <use xlink:href="#DejaVuSans-2e" x="63.623047"/>
       <use xlink:href="#DejaVuSans-38" x="95.410156"/>
      </g>
     </g>
    </g>
    <g id="ytick_6">
     <g id="line2d_12">
      <path d="M 57.6 41.472 
L 414.72 41.472 
" clip-path="url(#ped5ab95f92)" style="fill: none; stroke: #ffffff; stroke-width: 1.5; stroke-linecap: round"/>
     </g>
     <g id="text_12">
      <!-- 1.0 -->
      <g style="fill: #555555" transform="translate(18.859844 47.740711) scale(0.165 -0.165)">
       <use xlink:href="#DejaVuSans-31"/>
       <use xlink:href="#DejaVuSans-2e" x="63.623047"/>
       <use xlink:href="#DejaVuSans-30" x="95.410156"/>
      </g>
     </g>
    </g>
   </g>
   <g id="patch_3">
    <path d="M 57.6 307.584 
L 57.6 41.472 
" style="fill: none; stroke: #ffffff; stroke-linejoin: miter; stroke-linecap: square"/>
   </g>
   <g id="patch_4">
    <path d="M 414.72 307.584 
L 414.72 41.472 
" style="fill: none; stroke: #ffffff; stroke-linejoin: miter; stroke-linecap: square"/>
   </g>
   <g id="patch_5">
    <path d="M 57.6 307.584 
L 414.72 307.584 
" style="fill: none; stroke: #ffffff; stroke-linejoin: miter; stroke-linecap: square"/>
   </g>
   <g id="patch_6">
    <path d="M 57.6 41.472 
L 414.72 41.472 
" style="fill: none; stroke: #ffffff; stroke-linejoin: miter; stroke-linecap: square"/>
   </g>
  </g>
  <g id="axes_2">
   <g id="patch_7">
    <path d="M 0 345.6 
L 460.8 345.6 
L 460.8 0 
L 0 0 
z
" style="fill: #e5e5e5"/>
   </g>
   <g id="matplotlib.axis_3">
    <g id="xtick_7">
     <g id="line2d_13">
      <path d="M 56.572929 345.6 
L 56.572929 0 
" clip-path="url(#pe900a286ee)" style="fill: none; stroke: #ffffff; stroke-width: 1.5; stroke-linecap: round"/>
     </g>
     <g id="text_13">
      <!-- −1.0 -->
      <g style="fill: #555555" transform="translate(36.539609 370.637422) scale(0.165 -0.165)">
       <defs>
        <path id="DejaVuSans-2212" d="M 678 2272 
L 4684 2272 
L 4684 1741 
L 678 1741 
L 678 2272 
z
" transform="scale(0.015625)"/>
       </defs>
       <use xlink:href="#DejaVuSans-2212"/>
       <use xlink:href="#DejaVuSans-31" x="83.789062"/>
       <use xlink:href="#DejaVuSans-2e" x="147.412109"/>
       <use xlink:href="#DejaVuSans-30" x="179.199219"/>
      </g>
     </g>
    </g>
    <g id="xtick_8">
     <g id="line2d_14">
      <path d="M 146.986208 345.6 
L 146.986208 0 
" clip-path="url(#pe900a286ee)" style="fill: none; stroke: #ffffff; stroke-width: 1.5; stroke-linecap: round"/>
     </g>
     <g id="text_14">
      <!-- −0.5 -->
      <g style="fill: #555555" transform="translate(126.952888 370.637422) scale(0.165 -0.165)">
       <defs>
        <path id="DejaVuSans-35" d="M 691 4666 
L 3169 4666 
L 3169 4134 
L 1269 4134 
L 1269 2991 
Q 1406 3038 1543 3061 
Q 1681 3084 1819 3084 
Q 2600 3084 3056 2656 
Q 3513 2228 3513 1497 
Q 3513 744 3044 326 
Q 2575 -91 1722 -91 
Q 1428 -91 1123 -41 
Q 819 9 494 109 
L 494 744 
Q 775 591 1075 516 
Q 1375 441 1709 441 
Q 2250 441 2565 725 
Q 2881 1009 2881 1497 
Q 2881 1984 2565 2268 
Q 2250 2553 1709 2553 
Q 1456 2553 1204 2497 
Q 953 2441 691 2322 
L 691 4666 
z
" transform="scale(0.015625)"/>
       </defs>
       <use xlink:href="#DejaVuSans-2212"/>
       <use xlink:href="#DejaVuSans-30" x="83.789062"/>
       <use xlink:href="#DejaVuSans-2e" x="147.412109"/>
       <use xlink:href="#DejaVuSans-35" x="179.199219"/>
      </g>
     </g>
    </g>
    <g id="xtick_9">
     <g id="line2d_15">
      <path d="M 237.399486 345.6 
L 237.399486 0 
" clip-path="url(#pe900a286ee)" style="fill: none; stroke: #ffffff; stroke-width: 1.5; stroke-linecap: round"/>
     </g>
     <g id="text_15">
      <!-- 0.0 -->
      <g style="fill: #555555" transform="translate(224.279408 370.637422) scale(0.165 -0.165)">
       <use xlink:href="#DejaVuSans-30"/>
       <use xlink:href="#DejaVuSans-2e" x="63.623047"/>
       <use xlink:href="#DejaVuSans-30" x="95.410156"/>
      </g>
     </g>
    </g>
    <g id="xtick_10">
     <g id="line2d_16">
      <path d="M 327.812765 345.6 
L 327.812765 0 
" clip-path="url(#pe900a286ee)" style="fill: none; stroke: #ffffff; stroke-width: 1.5; stroke-linecap: round"/>
     </g>
     <g id="text_16">
      <!-- 0.5 -->
      <g style="fill: #555555" transform="translate(314.692687 370.637422) scale(0.165 -0.165)">
       <use xlink:href="#DejaVuSans-30"/>
       <use xlink:href="#DejaVuSans-2e" x="63.623047"/>
       <use xlink:href="#DejaVuSans-35" x="95.410156"/>
      </g>
     </g>
    </g>
    <g id="xtick_11">
     <g id="line2d_17">
      <path d="M 418.226044 345.6 
L 418.226044 0 
" clip-path="url(#pe900a286ee)" style="fill: none; stroke: #ffffff; stroke-width: 1.5; stroke-linecap: round"/>
     </g>
     <g id="text_17">
      <!-- 1.0 -->
      <g style="fill: #555555" transform="translate(405.105965 370.637422) scale(0.165 -0.165)">
       <use xlink:href="#DejaVuSans-31"/>
       <use xlink:href="#DejaVuSans-2e" x="63.623047"/>
       <use xlink:href="#DejaVuSans-30" x="95.410156"/>
      </g>
     </g>
    </g>
    <g id="text_18">
     <!-- nMDS1 -->
     <g style="fill: #555555" transform="translate(209.174062 387.187031) scale(0.12 -0.12)">
      <defs>
       <path id="DejaVuSans-6e" d="M 3513 2113 
L 3513 0 
L 2938 0 
L 2938 2094 
Q 2938 2591 2744 2837 
Q 2550 3084 2163 3084 
Q 1697 3084 1428 2787 
Q 1159 2491 1159 1978 
L 1159 0 
L 581 0 
L 581 3500 
L 1159 3500 
L 1159 2956 
Q 1366 3272 1645 3428 
Q 1925 3584 2291 3584 
Q 2894 3584 3203 3211 
Q 3513 2838 3513 2113 
z
" transform="scale(0.015625)"/>
       <path id="DejaVuSans-4d" d="M 628 4666 
L 1569 4666 
L 2759 1491 
L 3956 4666 
L 4897 4666 
L 4897 0 
L 4281 0 
L 4281 4097 
L 3078 897 
L 2444 897 
L 1241 4097 
L 1241 0 
L 628 0 
L 628 4666 
z
" transform="scale(0.015625)"/>
       <path id="DejaVuSans-44" d="M 1259 4147 
L 1259 519 
L 2022 519 
Q 2988 519 3436 956 
Q 3884 1394 3884 2338 
Q 3884 3275 3436 3711 
Q 2988 4147 2022 4147 
L 1259 4147 
z
M 628 4666 
L 1925 4666 
Q 3281 4666 3915 4102 
Q 4550 3538 4550 2338 
Q 4550 1131 3912 565 
Q 3275 0 1925 0 
L 628 0 
L 628 4666 
z
" transform="scale(0.015625)"/>
       <path id="DejaVuSans-53" d="M 3425 4513 
L 3425 3897 
Q 3066 4069 2747 4153 
Q 2428 4238 2131 4238 
Q 1616 4238 1336 4038 
Q 1056 3838 1056 3469 
Q 1056 3159 1242 3001 
Q 1428 2844 1947 2747 
L 2328 2669 
Q 3034 2534 3370 2195 
Q 3706 1856 3706 1288 
Q 3706 609 3251 259 
Q 2797 -91 1919 -91 
Q 1588 -91 1214 -16 
Q 841 59 441 206 
L 441 856 
Q 825 641 1194 531 
Q 1563 422 1919 422 
Q 2459 422 2753 634 
Q 3047 847 3047 1241 
Q 3047 1584 2836 1778 
Q 2625 1972 2144 2069 
L 1759 2144 
Q 1053 2284 737 2584 
Q 422 2884 422 3419 
Q 422 4038 858 4394 
Q 1294 4750 2059 4750 
Q 2388 4750 2728 4690 
Q 3069 4631 3425 4513 
z
" transform="scale(0.015625)"/>
      </defs>
      <use xlink:href="#DejaVuSans-6e"/>
      <use xlink:href="#DejaVuSans-4d" x="63.378906"/>
      <use xlink:href="#DejaVuSans-44" x="149.658203"/>
      <use xlink:href="#DejaVuSans-53" x="226.660156"/>
      <use xlink:href="#DejaVuSans-31" x="290.136719"/>
     </g>
    </g>
   </g>
   <g id="matplotlib.axis_4">
    <g id="ytick_7">
     <g id="line2d_18">
      <path d="M 0 325.206891 
L 460.8 325.206891 
" clip-path="url(#pe900a286ee)" style="fill: none; stroke: #ffffff; stroke-width: 1.5; stroke-linecap: round"/>
     </g>
     <g id="text_19">
      <!-- −1.00 -->
      <g style="fill: #555555" transform="translate(-63.064766 331.475602) scale(0.165 -0.165)">
       <use xlink:href="#DejaVuSans-2212"/>
       <use xlink:href="#DejaVuSans-31" x="83.789062"/>
       <use xlink:href="#DejaVuSans-2e" x="147.412109"/>
       <use xlink:href="#DejaVuSans-30" x="179.199219"/>
       <use xlink:href="#DejaVuSans-30" x="242.822266"/>
      </g>
     </g>
    </g>
    <g id="ytick_8">
     <g id="line2d_19">
      <path d="M 0 280.141905 
L 460.8 280.141905 
" clip-path="url(#pe900a286ee)" style="fill: none; stroke: #ffffff; stroke-width: 1.5; stroke-linecap: round"/>
     </g>
     <g id="text_20">
      <!-- −0.75 -->
      <g style="fill: #555555" transform="translate(-63.064766 286.410616) scale(0.165 -0.165)">
       <defs>
        <path id="DejaVuSans-37" d="M 525 4666 
L 3525 4666 
L 3525 4397 
L 1831 0 
L 1172 0 
L 2766 4134 
L 525 4134 
L 525 4666 
z
" transform="scale(0.015625)"/>
       </defs>
       <use xlink:href="#DejaVuSans-2212"/>
       <use xlink:href="#DejaVuSans-30" x="83.789062"/>
       <use xlink:href="#DejaVuSans-2e" x="147.412109"/>
       <use xlink:href="#DejaVuSans-37" x="179.199219"/>
       <use xlink:href="#DejaVuSans-35" x="242.822266"/>
      </g>
     </g>
    </g>
    <g id="ytick_9">
     <g id="line2d_20">
      <path d="M 0 235.076919 
L 460.8 235.076919 
" clip-path="url(#pe900a286ee)" style="fill: none; stroke: #ffffff; stroke-width: 1.5; stroke-linecap: round"/>
     </g>
     <g id="text_21">
      <!-- −0.50 -->
      <g style="fill: #555555" transform="translate(-63.064766 241.34563) scale(0.165 -0.165)">
       <use xlink:href="#DejaVuSans-2212"/>
       <use xlink:href="#DejaVuSans-30" x="83.789062"/>
       <use xlink:href="#DejaVuSans-2e" x="147.412109"/>
       <use xlink:href="#DejaVuSans-35" x="179.199219"/>
       <use xlink:href="#DejaVuSans-30" x="242.822266"/>
      </g>
     </g>
    </g>
    <g id="ytick_10">
     <g id="line2d_21">
      <path d="M 0 190.011933 
L 460.8 190.011933 
" clip-path="url(#pe900a286ee)" style="fill: none; stroke: #ffffff; stroke-width: 1.5; stroke-linecap: round"/>
     </g>
     <g id="text_22">
      <!-- −0.25 -->
      <g style="fill: #555555" transform="translate(-63.064766 196.280643) scale(0.165 -0.165)">
       <use xlink:href="#DejaVuSans-2212"/>
       <use xlink:href="#DejaVuSans-30" x="83.789062"/>
       <use xlink:href="#DejaVuSans-2e" x="147.412109"/>
       <use xlink:href="#DejaVuSans-32" x="179.199219"/>
       <use xlink:href="#DejaVuSans-35" x="242.822266"/>
      </g>
     </g>
    </g>
    <g id="ytick_11">
     <g id="line2d_22">
      <path d="M 0 144.946946 
L 460.8 144.946946 
" clip-path="url(#pe900a286ee)" style="fill: none; stroke: #ffffff; stroke-width: 1.5; stroke-linecap: round"/>
     </g>
     <g id="text_23">
      <!-- 0.00 -->
      <g style="fill: #555555" transform="translate(-49.238281 151.215657) scale(0.165 -0.165)">
       <use xlink:href="#DejaVuSans-30"/>
       <use xlink:href="#DejaVuSans-2e" x="63.623047"/>
       <use xlink:href="#DejaVuSans-30" x="95.410156"/>
       <use xlink:href="#DejaVuSans-30" x="159.033203"/>
      </g>
     </g>
    </g>
    <g id="ytick_12">
     <g id="line2d_23">
      <path d="M 0 99.88196 
L 460.8 99.88196 
" clip-path="url(#pe900a286ee)" style="fill: none; stroke: #ffffff; stroke-width: 1.5; stroke-linecap: round"/>
     </g>
     <g id="text_24">
      <!-- 0.25 -->
      <g style="fill: #555555" transform="translate(-49.238281 106.150671) scale(0.165 -0.165)">
       <use xlink:href="#DejaVuSans-30"/>
       <use xlink:href="#DejaVuSans-2e" x="63.623047"/>
       <use xlink:href="#DejaVuSans-32" x="95.410156"/>
       <use xlink:href="#DejaVuSans-35" x="159.033203"/>
      </g>
     </g>
    </g>
    <g id="ytick_13">
     <g id="line2d_24">
      <path d="M 0 54.816974 
L 460.8 54.816974 
" clip-path="url(#pe900a286ee)" style="fill: none; stroke: #ffffff; stroke-width: 1.5; stroke-linecap: round"/>
     </g>
     <g id="text_25">
      <!-- 0.50 -->
      <g style="fill: #555555" transform="translate(-49.238281 61.085685) scale(0.165 -0.165)">
       <use xlink:href="#DejaVuSans-30"/>
       <use xlink:href="#DejaVuSans-2e" x="63.623047"/>
       <use xlink:href="#DejaVuSans-35" x="95.410156"/>
       <use xlink:href="#DejaVuSans-30" x="159.033203"/>
      </g>
     </g>
    </g>
    <g id="ytick_14">
     <g id="line2d_25">
      <path d="M 0 9.751987 
L 460.8 9.751987 
" clip-path="url(#pe900a286ee)" style="fill: none; stroke: #ffffff; stroke-width: 1.5; stroke-linecap: round"/>
     </g>
     <g id="text_26">
      <!-- 0.75 -->
      <g style="fill: #555555" transform="translate(-49.238281 16.020698) scale(0.165 -0.165)">
       <use xlink:href="#DejaVuSans-30"/>
       <use xlink:href="#DejaVuSans-2e" x="63.623047"/>
       <use xlink:href="#DejaVuSans-37" x="95.410156"/>
       <use xlink:href="#DejaVuSans-35" x="159.033203"/>
      </g>
     </g>
    </g>
    <g id="text_27">
     <!-- nMDS2 -->
     <g style="fill: #555555" transform="translate(-69.560391 194.025937) rotate(-90) scale(0.12 -0.12)">
      <use xlink:href="#DejaVuSans-6e"/>
      <use xlink:href="#DejaVuSans-4d" x="63.378906"/>
      <use xlink:href="#DejaVuSans-44" x="149.658203"/>
      <use xlink:href="#DejaVuSans-53" x="226.660156"/>
      <use xlink:href="#DejaVuSans-32" x="290.136719"/>
     </g>
    </g>
   </g>
   <g id="PathCollection_1">
    <defs>
     <path id="C0_0_cb796b6eba" d="M 0 5 
C 1.326016 5 2.597899 4.473168 3.535534 3.535534 
C 4.473168 2.597899 5 1.326016 5 -0 
C 5 -1.326016 4.473168 -2.597899 3.535534 -3.535534 
C 2.597899 -4.473168 1.326016 -5 0 -5 
C -1.326016 -5 -2.597899 -4.473168 -3.535534 -3.535534 
C -4.473168 -2.597899 -5 -1.326016 -5 0 
C -5 1.326016 -4.473168 2.597899 -3.535534 3.535534 
C -2.597899 4.473168 -1.326016 5 0 5 
z
"/>
    </defs>
    <g clip-path="url(#pe900a286ee)">
     <use xlink:href="#C0_0_cb796b6eba" x="377.879405" y="202.077464" style="fill: #dfc27d; stroke: #ffffff; stroke-width: 0.8"/>
    </g>
    <g clip-path="url(#pe900a286ee)">
     <use xlink:href="#C0_0_cb796b6eba" x="20.945455" y="102.453365" style="fill: #80cdc1; stroke: #ffffff; stroke-width: 0.8"/>
    </g>
    <g clip-path="url(#pe900a286ee)">
     <use xlink:href="#C0_0_cb796b6eba" x="374.370266" y="296.065538" style="fill: #80cdc1; stroke: #ffffff; stroke-width: 0.8"/>
    </g>
    <g clip-path="url(#pe900a286ee)">
     <use xlink:href="#C0_0_cb796b6eba" x="439.854545" y="211.306702" style="fill: #80cdc1; stroke: #ffffff; stroke-width: 0.8"/>
    </g>
    <g clip-path="url(#pe900a286ee)">
     <use xlink:href="#C0_0_cb796b6eba" x="259.480486" y="138.052552" style="fill: #dfc27d; stroke: #ffffff; stroke-width: 0.8"/>
    </g>
    <g clip-path="url(#pe900a286ee)">
     <use xlink:href="#C0_0_cb796b6eba" x="257.241297" y="124.322058" style="fill: #dfc27d; stroke: #ffffff; stroke-width: 0.8"/>
    </g>
    <g clip-path="url(#pe900a286ee)">
     <use xlink:href="#C0_0_cb796b6eba" x="203.831447" y="150.209266" style="fill: #80cdc1; stroke: #ffffff; stroke-width: 0.8"/>
    </g>
    <g clip-path="url(#pe900a286ee)">
     <use xlink:href="#C0_0_cb796b6eba" x="253.94998" y="93.53892" style="fill: #dfc27d; stroke: #ffffff; stroke-width: 0.8"/>
    </g>
    <g clip-path="url(#pe900a286ee)">
     <use xlink:href="#C0_0_cb796b6eba" x="259.859114" y="326.63073" style="fill: #80cdc1; stroke: #ffffff; stroke-width: 0.8"/>
    </g>
    <g clip-path="url(#pe900a286ee)">
     <use xlink:href="#C0_0_cb796b6eba" x="252.482708" y="240.041596" style="fill: #dfc27d; stroke: #ffffff; stroke-width: 0.8"/>
    </g>
    <g clip-path="url(#pe900a286ee)">
     <use xlink:href="#C0_0_cb796b6eba" x="220.1771" y="139.715507" style="fill: #80cdc1; stroke: #ffffff; stroke-width: 0.8"/>
    </g>
    <g clip-path="url(#pe900a286ee)">
     <use xlink:href="#C0_0_cb796b6eba" x="273.226704" y="112.421283" style="fill: #018571; stroke: #ffffff; stroke-width: 0.8"/>
    </g>
    <g clip-path="url(#pe900a286ee)">
     <use xlink:href="#C0_0_cb796b6eba" x="207.869246" y="96.829783" style="fill: #018571; stroke: #ffffff; stroke-width: 0.8"/>
    </g>
    <g clip-path="url(#pe900a286ee)">
     <use xlink:href="#C0_0_cb796b6eba" x="242.360171" y="154.283467" style="fill: #80cdc1; stroke: #ffffff; stroke-width: 0.8"/>
    </g>
    <g clip-path="url(#pe900a286ee)">
     <use xlink:href="#C0_0_cb796b6eba" x="224.094982" y="128.699674" style="fill: #80cdc1; stroke: #ffffff; stroke-width: 0.8"/>
    </g>
    <g clip-path="url(#pe900a286ee)">
     <use xlink:href="#C0_0_cb796b6eba" x="233.5338" y="144.129986" style="fill: #80cdc1; stroke: #ffffff; stroke-width: 0.8"/>
    </g>
    <g clip-path="url(#pe900a286ee)">
     <use xlink:href="#C0_0_cb796b6eba" x="253.117343" y="93.570911" style="fill: #dfc27d; stroke: #ffffff; stroke-width: 0.8"/>
    </g>
    <g clip-path="url(#pe900a286ee)">
     <use xlink:href="#C0_0_cb796b6eba" x="166.216388" y="179.885557" style="fill: #80cdc1; stroke: #ffffff; stroke-width: 0.8"/>
    </g>
    <g clip-path="url(#pe900a286ee)">
     <use xlink:href="#C0_0_cb796b6eba" x="248.167996" y="111.401117" style="fill: #dfc27d; stroke: #ffffff; stroke-width: 0.8"/>
    </g>
    <g clip-path="url(#pe900a286ee)">
     <use xlink:href="#C0_0_cb796b6eba" x="258.467282" y="104.016118" style="fill: #dfc27d; stroke: #ffffff; stroke-width: 0.8"/>
    </g>
    <g clip-path="url(#pe900a286ee)">
     <use xlink:href="#C0_0_cb796b6eba" x="251.866847" y="86.213815" style="fill: #dfc27d; stroke: #ffffff; stroke-width: 0.8"/>
    </g>
    <g clip-path="url(#pe900a286ee)">
     <use xlink:href="#C0_0_cb796b6eba" x="256.454104" y="133.754995" style="fill: #dfc27d; stroke: #ffffff; stroke-width: 0.8"/>
    </g>
    <g clip-path="url(#pe900a286ee)">
     <use xlink:href="#C0_0_cb796b6eba" x="273.214486" y="110.667036" style="fill: #dfc27d; stroke: #ffffff; stroke-width: 0.8"/>
    </g>
    <g clip-path="url(#pe900a286ee)">
     <use xlink:href="#C0_0_cb796b6eba" x="154.766142" y="92.273182" style="fill: #80cdc1; stroke: #ffffff; stroke-width: 0.8"/>
    </g>
    <g clip-path="url(#pe900a286ee)">
     <use xlink:href="#C0_0_cb796b6eba" x="59.171821" y="257.792065" style="fill: #80cdc1; stroke: #ffffff; stroke-width: 0.8"/>
    </g>
    <g clip-path="url(#pe900a286ee)">
     <use xlink:href="#C0_0_cb796b6eba" x="252.663907" y="109.756096" style="fill: #dfc27d; stroke: #ffffff; stroke-width: 0.8"/>
    </g>
    <g clip-path="url(#pe900a286ee)">
     <use xlink:href="#C0_0_cb796b6eba" x="276.954027" y="15.709091" style="fill: #dfc27d; stroke: #ffffff; stroke-width: 0.8"/>
    </g>
    <g clip-path="url(#pe900a286ee)">
     <use xlink:href="#C0_0_cb796b6eba" x="259.581948" y="113.533223" style="fill: #dfc27d; stroke: #ffffff; stroke-width: 0.8"/>
    </g>
    <g clip-path="url(#pe900a286ee)">
     <use xlink:href="#C0_0_cb796b6eba" x="266.527052" y="92.512841" style="fill: #dfc27d; stroke: #ffffff; stroke-width: 0.8"/>
    </g>
    <g clip-path="url(#pe900a286ee)">
     <use xlink:href="#C0_0_cb796b6eba" x="204.210441" y="171.182079" style="fill: #018571; stroke: #ffffff; stroke-width: 0.8"/>
    </g>
    <g clip-path="url(#pe900a286ee)">
     <use xlink:href="#C0_0_cb796b6eba" x="95.132549" y="266.460241" style="fill: #80cdc1; stroke: #ffffff; stroke-width: 0.8"/>
    </g>
    <g clip-path="url(#pe900a286ee)">
     <use xlink:href="#C0_0_cb796b6eba" x="272.05866" y="82.163368" style="fill: #dfc27d; stroke: #ffffff; stroke-width: 0.8"/>
    </g>
    <g clip-path="url(#pe900a286ee)">
     <use xlink:href="#C0_0_cb796b6eba" x="279.234408" y="107.695792" style="fill: #dfc27d; stroke: #ffffff; stroke-width: 0.8"/>
    </g>
    <g clip-path="url(#pe900a286ee)">
     <use xlink:href="#C0_0_cb796b6eba" x="236.934434" y="158.596717" style="fill: #80cdc1; stroke: #ffffff; stroke-width: 0.8"/>
    </g>
    <g clip-path="url(#pe900a286ee)">
     <use xlink:href="#C0_0_cb796b6eba" x="292.078216" y="102.156692" style="fill: #dfc27d; stroke: #ffffff; stroke-width: 0.8"/>
    </g>
    <g clip-path="url(#pe900a286ee)">
     <use xlink:href="#C0_0_cb796b6eba" x="310.213631" y="222.472241" style="fill: #80cdc1; stroke: #ffffff; stroke-width: 0.8"/>
    </g>
    <g clip-path="url(#pe900a286ee)">
     <use xlink:href="#C0_0_cb796b6eba" x="245.080327" y="113.814412" style="fill: #dfc27d; stroke: #ffffff; stroke-width: 0.8"/>
    </g>
    <g clip-path="url(#pe900a286ee)">
     <use xlink:href="#C0_0_cb796b6eba" x="308.523242" y="75.575516" style="fill: #dfc27d; stroke: #ffffff; stroke-width: 0.8"/>
    </g>
    <g clip-path="url(#pe900a286ee)">
     <use xlink:href="#C0_0_cb796b6eba" x="175.382332" y="206.822324" style="fill: #80cdc1; stroke: #ffffff; stroke-width: 0.8"/>
    </g>
    <g clip-path="url(#pe900a286ee)">
     <use xlink:href="#C0_0_cb796b6eba" x="270.663191" y="104.378413" style="fill: #dfc27d; stroke: #ffffff; stroke-width: 0.8"/>
    </g>
    <g clip-path="url(#pe900a286ee)">
     <use xlink:href="#C0_0_cb796b6eba" x="292.643744" y="113.157567" style="fill: #dfc27d; stroke: #ffffff; stroke-width: 0.8"/>
    </g>
    <g clip-path="url(#pe900a286ee)">
     <use xlink:href="#C0_0_cb796b6eba" x="264.712386" y="119.805276" style="fill: #dfc27d; stroke: #ffffff; stroke-width: 0.8"/>
    </g>
    <g clip-path="url(#pe900a286ee)">
     <use xlink:href="#C0_0_cb796b6eba" x="258.057494" y="103.138908" style="fill: #dfc27d; stroke: #ffffff; stroke-width: 0.8"/>
    </g>
    <g clip-path="url(#pe900a286ee)">
     <use xlink:href="#C0_0_cb796b6eba" x="216.591353" y="131.425068" style="fill: #80cdc1; stroke: #ffffff; stroke-width: 0.8"/>
    </g>
    <g clip-path="url(#pe900a286ee)">
     <use xlink:href="#C0_0_cb796b6eba" x="257.830319" y="92.37531" style="fill: #dfc27d; stroke: #ffffff; stroke-width: 0.8"/>
    </g>
    <g clip-path="url(#pe900a286ee)">
     <use xlink:href="#C0_0_cb796b6eba" x="213.850542" y="119.402525" style="fill: #80cdc1; stroke: #ffffff; stroke-width: 0.8"/>
    </g>
    <g clip-path="url(#pe900a286ee)">
     <use xlink:href="#C0_0_cb796b6eba" x="304.154829" y="329.890909" style="fill: #80cdc1; stroke: #ffffff; stroke-width: 0.8"/>
    </g>
    <g clip-path="url(#pe900a286ee)">
     <use xlink:href="#C0_0_cb796b6eba" x="264.929554" y="95.336032" style="fill: #dfc27d; stroke: #ffffff; stroke-width: 0.8"/>
    </g>
    <g clip-path="url(#pe900a286ee)">
     <use xlink:href="#C0_0_cb796b6eba" x="238.541708" y="134.884971" style="fill: #dfc27d; stroke: #ffffff; stroke-width: 0.8"/>
    </g>
    <g clip-path="url(#pe900a286ee)">
     <use xlink:href="#C0_0_cb796b6eba" x="269.42438" y="125.652942" style="fill: #dfc27d; stroke: #ffffff; stroke-width: 0.8"/>
    </g>
    <g clip-path="url(#pe900a286ee)">
     <use xlink:href="#C0_0_cb796b6eba" x="239.526384" y="112.829492" style="fill: #dfc27d; stroke: #ffffff; stroke-width: 0.8"/>
    </g>
    <g clip-path="url(#pe900a286ee)">
     <use xlink:href="#C0_0_cb796b6eba" x="163.202883" y="282.25325" style="fill: #80cdc1; stroke: #ffffff; stroke-width: 0.8"/>
    </g>
    <g clip-path="url(#pe900a286ee)">
     <use xlink:href="#C0_0_cb796b6eba" x="210.971956" y="112.909768" style="fill: #80cdc1; stroke: #ffffff; stroke-width: 0.8"/>
    </g>
    <g clip-path="url(#pe900a286ee)">
     <use xlink:href="#C0_0_cb796b6eba" x="235.377597" y="137.870061" style="fill: #80cdc1; stroke: #ffffff; stroke-width: 0.8"/>
    </g>
    <g clip-path="url(#pe900a286ee)">
     <use xlink:href="#C0_0_cb796b6eba" x="59.562628" y="217.405616" style="fill: #80cdc1; stroke: #ffffff; stroke-width: 0.8"/>
    </g>
    <g clip-path="url(#pe900a286ee)">
     <use xlink:href="#C0_0_cb796b6eba" x="124.600693" y="223.523798" style="fill: #80cdc1; stroke: #ffffff; stroke-width: 0.8"/>
    </g>
    <g clip-path="url(#pe900a286ee)">
     <use xlink:href="#C0_0_cb796b6eba" x="248.70263" y="130.741729" style="fill: #dfc27d; stroke: #ffffff; stroke-width: 0.8"/>
    </g>
    <g clip-path="url(#pe900a286ee)">
     <use xlink:href="#C0_0_cb796b6eba" x="225.326888" y="73.766469" style="fill: #dfc27d; stroke: #ffffff; stroke-width: 0.8"/>
    </g>
    <g clip-path="url(#pe900a286ee)">
     <use xlink:href="#C0_0_cb796b6eba" x="225.02783" y="157.384731" style="fill: #dfc27d; stroke: #ffffff; stroke-width: 0.8"/>
    </g>
    <g clip-path="url(#pe900a286ee)">
     <use xlink:href="#C0_0_cb796b6eba" x="281.554789" y="150.858973" style="fill: #dfc27d; stroke: #ffffff; stroke-width: 0.8"/>
    </g>
    <g clip-path="url(#pe900a286ee)">
     <use xlink:href="#C0_0_cb796b6eba" x="240.344869" y="53.610776" style="fill: #dfc27d; stroke: #ffffff; stroke-width: 0.8"/>
    </g>
    <g clip-path="url(#pe900a286ee)">
     <use xlink:href="#C0_0_cb796b6eba" x="247.690997" y="144.055154" style="fill: #dfc27d; stroke: #ffffff; stroke-width: 0.8"/>
    </g>
    <g clip-path="url(#pe900a286ee)">
     <use xlink:href="#C0_0_cb796b6eba" x="257.9899" y="167.512887" style="fill: #80cdc1; stroke: #ffffff; stroke-width: 0.8"/>
    </g>
    <g clip-path="url(#pe900a286ee)">
     <use xlink:href="#C0_0_cb796b6eba" x="243.962301" y="171.032504" style="fill: #dfc27d; stroke: #ffffff; stroke-width: 0.8"/>
    </g>
    <g clip-path="url(#pe900a286ee)">
     <use xlink:href="#C0_0_cb796b6eba" x="248.900085" y="171.543967" style="fill: #80cdc1; stroke: #ffffff; stroke-width: 0.8"/>
    </g>
    <g clip-path="url(#pe900a286ee)">
     <use xlink:href="#C0_0_cb796b6eba" x="240.510687" y="92.499005" style="fill: #dfc27d; stroke: #ffffff; stroke-width: 0.8"/>
    </g>
    <g clip-path="url(#pe900a286ee)">
     <use xlink:href="#C0_0_cb796b6eba" x="193.448951" y="193.66336" style="fill: #80cdc1; stroke: #ffffff; stroke-width: 0.8"/>
    </g>
    <g clip-path="url(#pe900a286ee)">
     <use xlink:href="#C0_0_cb796b6eba" x="240.243316" y="189.289643" style="fill: #80cdc1; stroke: #ffffff; stroke-width: 0.8"/>
    </g>
    <g clip-path="url(#pe900a286ee)">
     <use xlink:href="#C0_0_cb796b6eba" x="184.162777" y="120.170172" style="fill: #80cdc1; stroke: #ffffff; stroke-width: 0.8"/>
    </g>
    <g clip-path="url(#pe900a286ee)">
     <use xlink:href="#C0_0_cb796b6eba" x="257.888451" y="78.91096" style="fill: #018571; stroke: #ffffff; stroke-width: 0.8"/>
    </g>
    <g clip-path="url(#pe900a286ee)">
     <use xlink:href="#C0_0_cb796b6eba" x="139.713003" y="145.106731" style="fill: #80cdc1; stroke: #ffffff; stroke-width: 0.8"/>
    </g>
    <g clip-path="url(#pe900a286ee)">
     <use xlink:href="#C0_0_cb796b6eba" x="263.264963" y="111.30505" style="fill: #018571; stroke: #ffffff; stroke-width: 0.8"/>
    </g>
   </g>
   <g id="line2d_26"/>
   <g id="line2d_27"/>
   <g id="line2d_28"/>
   <g id="patch_8">
    <path d="M 0 345.6 
L 0 0 
" style="fill: none; stroke: #ffffff; stroke-linejoin: miter; stroke-linecap: square"/>
   </g>
   <g id="patch_9">
    <path d="M 460.8 345.6 
L 460.8 0 
" style="fill: none; stroke: #ffffff; stroke-linejoin: miter; stroke-linecap: square"/>
   </g>
   <g id="patch_10">
    <path d="M 0 345.6 
L 460.8 345.6 
" style="fill: none; stroke: #ffffff; stroke-linejoin: miter; stroke-linecap: square"/>
   </g>
   <g id="patch_11">
    <path d="M 0 0 
L 460.8 0 
" style="fill: none; stroke: #ffffff; stroke-linejoin: miter; stroke-linecap: square"/>
   </g>
   <g id="text_28">
    <!-- nMDS genus -->
    <g style="fill: #262626" transform="translate(185.34375 -6) scale(0.144 -0.144)">
     <defs>
      <path id="DejaVuSans-20" transform="scale(0.015625)"/>
      <path id="DejaVuSans-67" d="M 2906 1791 
Q 2906 2416 2648 2759 
Q 2391 3103 1925 3103 
Q 1463 3103 1205 2759 
Q 947 2416 947 1791 
Q 947 1169 1205 825 
Q 1463 481 1925 481 
Q 2391 481 2648 825 
Q 2906 1169 2906 1791 
z
M 3481 434 
Q 3481 -459 3084 -895 
Q 2688 -1331 1869 -1331 
Q 1566 -1331 1297 -1286 
Q 1028 -1241 775 -1147 
L 775 -588 
Q 1028 -725 1275 -790 
Q 1522 -856 1778 -856 
Q 2344 -856 2625 -561 
Q 2906 -266 2906 331 
L 2906 616 
Q 2728 306 2450 153 
Q 2172 0 1784 0 
Q 1141 0 747 490 
Q 353 981 353 1791 
Q 353 2603 747 3093 
Q 1141 3584 1784 3584 
Q 2172 3584 2450 3431 
Q 2728 3278 2906 2969 
L 2906 3500 
L 3481 3500 
L 3481 434 
z
" transform="scale(0.015625)"/>
      <path id="DejaVuSans-65" d="M 3597 1894 
L 3597 1613 
L 953 1613 
Q 991 1019 1311 708 
Q 1631 397 2203 397 
Q 2534 397 2845 478 
Q 3156 559 3463 722 
L 3463 178 
Q 3153 47 2828 -22 
Q 2503 -91 2169 -91 
Q 1331 -91 842 396 
Q 353 884 353 1716 
Q 353 2575 817 3079 
Q 1281 3584 2069 3584 
Q 2775 3584 3186 3129 
Q 3597 2675 3597 1894 
z
M 3022 2063 
Q 3016 2534 2758 2815 
Q 2500 3097 2075 3097 
Q 1594 3097 1305 2825 
Q 1016 2553 972 2059 
L 3022 2063 
z
" transform="scale(0.015625)"/>
      <path id="DejaVuSans-75" d="M 544 1381 
L 544 3500 
L 1119 3500 
L 1119 1403 
Q 1119 906 1312 657 
Q 1506 409 1894 409 
Q 2359 409 2629 706 
Q 2900 1003 2900 1516 
L 2900 3500 
L 3475 3500 
L 3475 0 
L 2900 0 
L 2900 538 
Q 2691 219 2414 64 
Q 2138 -91 1772 -91 
Q 1169 -91 856 284 
Q 544 659 544 1381 
z
M 1991 3584 
L 1991 3584 
z
" transform="scale(0.015625)"/>
      <path id="DejaVuSans-73" d="M 2834 3397 
L 2834 2853 
Q 2591 2978 2328 3040 
Q 2066 3103 1784 3103 
Q 1356 3103 1142 2972 
Q 928 2841 928 2578 
Q 928 2378 1081 2264 
Q 1234 2150 1697 2047 
L 1894 2003 
Q 2506 1872 2764 1633 
Q 3022 1394 3022 966 
Q 3022 478 2636 193 
Q 2250 -91 1575 -91 
Q 1294 -91 989 -36 
Q 684 19 347 128 
L 347 722 
Q 666 556 975 473 
Q 1284 391 1588 391 
Q 1994 391 2212 530 
Q 2431 669 2431 922 
Q 2431 1156 2273 1281 
Q 2116 1406 1581 1522 
L 1381 1569 
Q 847 1681 609 1914 
Q 372 2147 372 2553 
Q 372 3047 722 3315 
Q 1072 3584 1716 3584 
Q 2034 3584 2315 3537 
Q 2597 3491 2834 3397 
z
" transform="scale(0.015625)"/>
     </defs>
     <use xlink:href="#DejaVuSans-6e"/>
     <use xlink:href="#DejaVuSans-4d" x="63.378906"/>
     <use xlink:href="#DejaVuSans-44" x="149.658203"/>
     <use xlink:href="#DejaVuSans-53" x="226.660156"/>
     <use xlink:href="#DejaVuSans-20" x="290.136719"/>
     <use xlink:href="#DejaVuSans-67" x="321.923828"/>
     <use xlink:href="#DejaVuSans-65" x="385.400391"/>
     <use xlink:href="#DejaVuSans-6e" x="446.923828"/>
     <use xlink:href="#DejaVuSans-75" x="510.302734"/>
     <use xlink:href="#DejaVuSans-73" x="573.681641"/>
    </g>
   </g>
   <g id="legend_1">
    <g id="patch_12">
     <path d="M 331.246641 85.856719 
L 449.25 85.856719 
Q 452.55 85.856719 452.55 82.556719 
L 452.55 11.55 
Q 452.55 8.25 449.25 8.25 
L 331.246641 8.25 
Q 327.946641 8.25 327.946641 11.55 
L 327.946641 82.556719 
Q 327.946641 85.856719 331.246641 85.856719 
z
" style="fill: #e5e5e5; opacity: 0.8; stroke: #cccccc; stroke-width: 0.5; stroke-linejoin: miter"/>
    </g>
    <g id="line2d_29">
     <defs>
      <path id="md2b3959c81" d="M 0 5 
C 1.326016 5 2.597899 4.473168 3.535534 3.535534 
C 4.473168 2.597899 5 1.326016 5 0 
C 5 -1.326016 4.473168 -2.597899 3.535534 -3.535534 
C 2.597899 -4.473168 1.326016 -5 0 -5 
C -1.326016 -5 -2.597899 -4.473168 -3.535534 -3.535534 
C -4.473168 -2.597899 -5 -1.326016 -5 0 
C -5 1.326016 -4.473168 2.597899 -3.535534 3.535534 
C -2.597899 4.473168 -1.326016 5 0 5 
z
" style="stroke: #ffffff; stroke-width: 0.8"/>
     </defs>
     <g>
      <use xlink:href="#md2b3959c81" x="351.046641" y="21.612422" style="fill: #dfc27d; stroke: #ffffff; stroke-width: 0.8"/>
     </g>
    </g>
    <g id="text_29">
     <!-- Group II -->
     <g style="fill: #262626" transform="translate(380.746641 27.387422) scale(0.165 -0.165)">
      <defs>
       <path id="DejaVuSans-47" d="M 3809 666 
L 3809 1919 
L 2778 1919 
L 2778 2438 
L 4434 2438 
L 4434 434 
Q 4069 175 3628 42 
Q 3188 -91 2688 -91 
Q 1594 -91 976 548 
Q 359 1188 359 2328 
Q 359 3472 976 4111 
Q 1594 4750 2688 4750 
Q 3144 4750 3555 4637 
Q 3966 4525 4313 4306 
L 4313 3634 
Q 3963 3931 3569 4081 
Q 3175 4231 2741 4231 
Q 1884 4231 1454 3753 
Q 1025 3275 1025 2328 
Q 1025 1384 1454 906 
Q 1884 428 2741 428 
Q 3075 428 3337 486 
Q 3600 544 3809 666 
z
" transform="scale(0.015625)"/>
       <path id="DejaVuSans-72" d="M 2631 2963 
Q 2534 3019 2420 3045 
Q 2306 3072 2169 3072 
Q 1681 3072 1420 2755 
Q 1159 2438 1159 1844 
L 1159 0 
L 581 0 
L 581 3500 
L 1159 3500 
L 1159 2956 
Q 1341 3275 1631 3429 
Q 1922 3584 2338 3584 
Q 2397 3584 2469 3576 
Q 2541 3569 2628 3553 
L 2631 2963 
z
" transform="scale(0.015625)"/>
       <path id="DejaVuSans-6f" d="M 1959 3097 
Q 1497 3097 1228 2736 
Q 959 2375 959 1747 
Q 959 1119 1226 758 
Q 1494 397 1959 397 
Q 2419 397 2687 759 
Q 2956 1122 2956 1747 
Q 2956 2369 2687 2733 
Q 2419 3097 1959 3097 
z
M 1959 3584 
Q 2709 3584 3137 3096 
Q 3566 2609 3566 1747 
Q 3566 888 3137 398 
Q 2709 -91 1959 -91 
Q 1206 -91 779 398 
Q 353 888 353 1747 
Q 353 2609 779 3096 
Q 1206 3584 1959 3584 
z
" transform="scale(0.015625)"/>
       <path id="DejaVuSans-70" d="M 1159 525 
L 1159 -1331 
L 581 -1331 
L 581 3500 
L 1159 3500 
L 1159 2969 
Q 1341 3281 1617 3432 
Q 1894 3584 2278 3584 
Q 2916 3584 3314 3078 
Q 3713 2572 3713 1747 
Q 3713 922 3314 415 
Q 2916 -91 2278 -91 
Q 1894 -91 1617 61 
Q 1341 213 1159 525 
z
M 3116 1747 
Q 3116 2381 2855 2742 
Q 2594 3103 2138 3103 
Q 1681 3103 1420 2742 
Q 1159 2381 1159 1747 
Q 1159 1113 1420 752 
Q 1681 391 2138 391 
Q 2594 391 2855 752 
Q 3116 1113 3116 1747 
z
" transform="scale(0.015625)"/>
       <path id="DejaVuSans-49" d="M 628 4666 
L 1259 4666 
L 1259 0 
L 628 0 
L 628 4666 
z
" transform="scale(0.015625)"/>
      </defs>
      <use xlink:href="#DejaVuSans-47"/>
      <use xlink:href="#DejaVuSans-72" x="77.490234"/>
      <use xlink:href="#DejaVuSans-6f" x="116.353516"/>
      <use xlink:href="#DejaVuSans-75" x="177.535156"/>
      <use xlink:href="#DejaVuSans-70" x="240.914062"/>
      <use xlink:href="#DejaVuSans-20" x="304.390625"/>
      <use xlink:href="#DejaVuSans-49" x="336.177734"/>
      <use xlink:href="#DejaVuSans-49" x="365.669922"/>
     </g>
    </g>
    <g id="line2d_30">
     <defs>
      <path id="medccb03b3f" d="M 0 5 
C 1.326016 5 2.597899 4.473168 3.535534 3.535534 
C 4.473168 2.597899 5 1.326016 5 0 
C 5 -1.326016 4.473168 -2.597899 3.535534 -3.535534 
C 2.597899 -4.473168 1.326016 -5 0 -5 
C -1.326016 -5 -2.597899 -4.473168 -3.535534 -3.535534 
C -4.473168 -2.597899 -5 -1.326016 -5 0 
C -5 1.326016 -4.473168 2.597899 -3.535534 3.535534 
C -2.597899 4.473168 -1.326016 5 0 5 
z
" style="stroke: #ffffff; stroke-width: 0.8"/>
     </defs>
     <g>
      <use xlink:href="#medccb03b3f" x="351.046641" y="45.831328" style="fill: #80cdc1; stroke: #ffffff; stroke-width: 0.8"/>
     </g>
    </g>
    <g id="text_30">
     <!-- Group I -->
     <g style="fill: #262626" transform="translate(380.746641 51.606328) scale(0.165 -0.165)">
      <use xlink:href="#DejaVuSans-47"/>
      <use xlink:href="#DejaVuSans-72" x="77.490234"/>
      <use xlink:href="#DejaVuSans-6f" x="116.353516"/>
      <use xlink:href="#DejaVuSans-75" x="177.535156"/>
      <use xlink:href="#DejaVuSans-70" x="240.914062"/>
      <use xlink:href="#DejaVuSans-20" x="304.390625"/>
      <use xlink:href="#DejaVuSans-49" x="336.177734"/>
     </g>
    </g>
    <g id="line2d_31">
     <defs>
      <path id="m3fed402ac5" d="M 0 5 
C 1.326016 5 2.597899 4.473168 3.535534 3.535534 
C 4.473168 2.597899 5 1.326016 5 0 
C 5 -1.326016 4.473168 -2.597899 3.535534 -3.535534 
C 2.597899 -4.473168 1.326016 -5 0 -5 
C -1.326016 -5 -2.597899 -4.473168 -3.535534 -3.535534 
C -4.473168 -2.597899 -5 -1.326016 -5 0 
C -5 1.326016 -4.473168 2.597899 -3.535534 3.535534 
C -2.597899 4.473168 -1.326016 5 0 5 
z
" style="stroke: #ffffff; stroke-width: 0.8"/>
     </defs>
     <g>
      <use xlink:href="#m3fed402ac5" x="351.046641" y="70.050234" style="fill: #018571; stroke: #ffffff; stroke-width: 0.8"/>
     </g>
    </g>
    <g id="text_31">
     <!-- +RV -->
     <g style="fill: #262626" transform="translate(380.746641 75.825234) scale(0.165 -0.165)">
      <defs>
       <path id="DejaVuSans-2b" d="M 2944 4013 
L 2944 2272 
L 4684 2272 
L 4684 1741 
L 2944 1741 
L 2944 0 
L 2419 0 
L 2419 1741 
L 678 1741 
L 678 2272 
L 2419 2272 
L 2419 4013 
L 2944 4013 
z
" transform="scale(0.015625)"/>
       <path id="DejaVuSans-52" d="M 2841 2188 
Q 3044 2119 3236 1894 
Q 3428 1669 3622 1275 
L 4263 0 
L 3584 0 
L 2988 1197 
Q 2756 1666 2539 1819 
Q 2322 1972 1947 1972 
L 1259 1972 
L 1259 0 
L 628 0 
L 628 4666 
L 2053 4666 
Q 2853 4666 3247 4331 
Q 3641 3997 3641 3322 
Q 3641 2881 3436 2590 
Q 3231 2300 2841 2188 
z
M 1259 4147 
L 1259 2491 
L 2053 2491 
Q 2509 2491 2742 2702 
Q 2975 2913 2975 3322 
Q 2975 3731 2742 3939 
Q 2509 4147 2053 4147 
L 1259 4147 
z
" transform="scale(0.015625)"/>
       <path id="DejaVuSans-56" d="M 1831 0 
L 50 4666 
L 709 4666 
L 2188 738 
L 3669 4666 
L 4325 4666 
L 2547 0 
L 1831 0 
z
" transform="scale(0.015625)"/>
      </defs>
      <use xlink:href="#DejaVuSans-2b"/>
      <use xlink:href="#DejaVuSans-52" x="83.789062"/>
      <use xlink:href="#DejaVuSans-56" x="147.771484"/>
     </g>
    </g>
   </g>
  </g>
 </g>
 <defs>
  <clipPath id="ped5ab95f92">
   <rect x="57.6" y="41.472" width="357.12" height="266.112"/>
  </clipPath>
  <clipPath id="pe900a286ee">
   <rect x="0" y="0" width="460.8" height="345.6"/>
  </clipPath>
 </defs>
</svg>
