<?xml version="1.0" encoding="utf-8" standalone="no"?>
<!DOCTYPE svg PUBLIC "-//W3C//DTD SVG 1.1//EN"
  "http://www.w3.org/Graphics/SVG/1.1/DTD/svg11.dtd">
<svg xmlns:xlink="http://www.w3.org/1999/xlink" width="720pt" height="576pt" viewBox="0 0 720 576" xmlns="http://www.w3.org/2000/svg" version="1.1">
 <metadata>
  <rdf:RDF xmlns:dc="http://purl.org/dc/elements/1.1/" xmlns:cc="http://creativecommons.org/ns#" xmlns:rdf="http://www.w3.org/1999/02/22-rdf-syntax-ns#">
   <cc:Work>
    <dc:type rdf:resource="http://purl.org/dc/dcmitype/StillImage"/>
    <dc:date>2024-08-02T15:27:23.925246</dc:date>
    <dc:format>image/svg+xml</dc:format>
    <dc:creator>
     <cc:Agent>
      <dc:title>Matplotlib v3.8.4, https://matplotlib.org/</dc:title>
     </cc:Agent>
    </dc:creator>
   </cc:Work>
  </rdf:RDF>
 </metadata>
 <defs>
  <style type="text/css">*{stroke-linejoin: round; stroke-linecap: butt}</style>
 </defs>
 <g id="figure_1">
  <g id="patch_1">
   <path d="M 0 576 
L 720 576 
L 720 0 
L 0 0 
z
" style="fill: #ffffff"/>
  </g>
  <g id="axes_1">
   <g id="patch_2">
    <path d="M 70.68 521.34 
L 709.2 521.34 
L 709.2 32.64 
L 70.68 32.64 
z
" style="fill: #ffffff"/>
   </g>
   <g id="matplotlib.axis_1">
    <g id="xtick_1">
     <g id="line2d_1">
      <path d="M 133.571534 521.34 
L 133.571534 32.64 
" clip-path="url(#p985c1cf5f9)" style="fill: none; stroke: #ffffff; stroke-width: 1.5; stroke-linecap: round"/>
     </g>
     <g id="text_1">
      <!-- −0.4 -->
      <g style="fill: #555555" transform="translate(119.001847 542.958125) scale(0.12 -0.12)">
       <defs>
        <path id="DejaVuSans-2212" d="M 678 2272 
L 4684 2272 
L 4684 1741 
L 678 1741 
L 678 2272 
z
" transform="scale(0.015625)"/>
        <path id="DejaVuSans-30" d="M 2034 4250 
Q 1547 4250 1301 3770 
Q 1056 3291 1056 2328 
Q 1056 1369 1301 889 
Q 1547 409 2034 409 
Q 2525 409 2770 889 
Q 3016 1369 3016 2328 
Q 3016 3291 2770 3770 
Q 2525 4250 2034 4250 
z
M 2034 4750 
Q 2819 4750 3233 4129 
Q 3647 3509 3647 2328 
Q 3647 1150 3233 529 
Q 2819 -91 2034 -91 
Q 1250 -91 836 529 
Q 422 1150 422 2328 
Q 422 3509 836 4129 
Q 1250 4750 2034 4750 
z
" transform="scale(0.015625)"/>
        <path id="DejaVuSans-2e" d="M 684 794 
L 1344 794 
L 1344 0 
L 684 0 
L 684 794 
z
" transform="scale(0.015625)"/>
        <path id="DejaVuSans-34" d="M 2419 4116 
L 825 1625 
L 2419 1625 
L 2419 4116 
z
M 2253 4666 
L 3047 4666 
L 3047 1625 
L 3713 1625 
L 3713 1100 
L 3047 1100 
L 3047 0 
L 2419 0 
L 2419 1100 
L 313 1100 
L 313 1709 
L 2253 4666 
z
" transform="scale(0.015625)"/>
       </defs>
       <use xlink:href="#DejaVuSans-2212"/>
       <use xlink:href="#DejaVuSans-30" x="83.789062"/>
       <use xlink:href="#DejaVuSans-2e" x="147.412109"/>
       <use xlink:href="#DejaVuSans-34" x="179.199219"/>
      </g>
     </g>
    </g>
    <g id="xtick_2">
     <g id="line2d_2">
      <path d="M 271.873293 521.34 
L 271.873293 32.64 
" clip-path="url(#p985c1cf5f9)" style="fill: none; stroke: #ffffff; stroke-width: 1.5; stroke-linecap: round"/>
     </g>
     <g id="text_2">
      <!-- −0.2 -->
      <g style="fill: #555555" transform="translate(257.303606 542.958125) scale(0.12 -0.12)">
       <defs>
        <path id="DejaVuSans-32" d="M 1228 531 
L 3431 531 
L 3431 0 
L 469 0 
L 469 531 
Q 828 903 1448 1529 
Q 2069 2156 2228 2338 
Q 2531 2678 2651 2914 
Q 2772 3150 2772 3378 
Q 2772 3750 2511 3984 
Q 2250 4219 1831 4219 
Q 1534 4219 1204 4116 
Q 875 4013 500 3803 
L 500 4441 
Q 881 4594 1212 4672 
Q 1544 4750 1819 4750 
Q 2544 4750 2975 4387 
Q 3406 4025 3406 3419 
Q 3406 3131 3298 2873 
Q 3191 2616 2906 2266 
Q 2828 2175 2409 1742 
Q 1991 1309 1228 531 
z
" transform="scale(0.015625)"/>
       </defs>
       <use xlink:href="#DejaVuSans-2212"/>
       <use xlink:href="#DejaVuSans-30" x="83.789062"/>
       <use xlink:href="#DejaVuSans-2e" x="147.412109"/>
       <use xlink:href="#DejaVuSans-32" x="179.199219"/>
      </g>
     </g>
    </g>
    <g id="xtick_3">
     <g id="line2d_3">
      <path d="M 410.175052 521.34 
L 410.175052 32.64 
" clip-path="url(#p985c1cf5f9)" style="fill: none; stroke: #ffffff; stroke-width: 1.5; stroke-linecap: round"/>
     </g>
     <g id="text_3">
      <!-- 0.0 -->
      <g style="fill: #555555" transform="translate(400.633177 542.958125) scale(0.12 -0.12)">
       <use xlink:href="#DejaVuSans-30"/>
       <use xlink:href="#DejaVuSans-2e" x="63.623047"/>
       <use xlink:href="#DejaVuSans-30" x="95.410156"/>
      </g>
     </g>
    </g>
    <g id="xtick_4">
     <g id="line2d_4">
      <path d="M 548.476811 521.34 
L 548.476811 32.64 
" clip-path="url(#p985c1cf5f9)" style="fill: none; stroke: #ffffff; stroke-width: 1.5; stroke-linecap: round"/>
     </g>
     <g id="text_4">
      <!-- 0.2 -->
      <g style="fill: #555555" transform="translate(538.934936 542.958125) scale(0.12 -0.12)">
       <use xlink:href="#DejaVuSans-30"/>
       <use xlink:href="#DejaVuSans-2e" x="63.623047"/>
       <use xlink:href="#DejaVuSans-32" x="95.410156"/>
      </g>
     </g>
    </g>
    <g id="xtick_5">
     <g id="line2d_5">
      <path d="M 686.77857 521.34 
L 686.77857 32.64 
" clip-path="url(#p985c1cf5f9)" style="fill: none; stroke: #ffffff; stroke-width: 1.5; stroke-linecap: round"/>
     </g>
     <g id="text_5">
      <!-- 0.4 -->
      <g style="fill: #555555" transform="translate(677.236695 542.958125) scale(0.12 -0.12)">
       <use xlink:href="#DejaVuSans-30"/>
       <use xlink:href="#DejaVuSans-2e" x="63.623047"/>
       <use xlink:href="#DejaVuSans-34" x="95.410156"/>
      </g>
     </g>
    </g>
    <g id="text_6">
     <!-- PCoA1 (19.10%) -->
     <g style="fill: #555555" transform="translate(328.856016 560.851406) scale(0.15 -0.15)">
      <defs>
       <path id="DejaVuSans-50" d="M 1259 4147 
L 1259 2394 
L 2053 2394 
Q 2494 2394 2734 2622 
Q 2975 2850 2975 3272 
Q 2975 3691 2734 3919 
Q 2494 4147 2053 4147 
L 1259 4147 
z
M 628 4666 
L 2053 4666 
Q 2838 4666 3239 4311 
Q 3641 3956 3641 3272 
Q 3641 2581 3239 2228 
Q 2838 1875 2053 1875 
L 1259 1875 
L 1259 0 
L 628 0 
L 628 4666 
z
" transform="scale(0.015625)"/>
       <path id="DejaVuSans-43" d="M 4122 4306 
L 4122 3641 
Q 3803 3938 3442 4084 
Q 3081 4231 2675 4231 
Q 1875 4231 1450 3742 
Q 1025 3253 1025 2328 
Q 1025 1406 1450 917 
Q 1875 428 2675 428 
Q 3081 428 3442 575 
Q 3803 722 4122 1019 
L 4122 359 
Q 3791 134 3420 21 
Q 3050 -91 2638 -91 
Q 1578 -91 968 557 
Q 359 1206 359 2328 
Q 359 3453 968 4101 
Q 1578 4750 2638 4750 
Q 3056 4750 3426 4639 
Q 3797 4528 4122 4306 
z
" transform="scale(0.015625)"/>
       <path id="DejaVuSans-6f" d="M 1959 3097 
Q 1497 3097 1228 2736 
Q 959 2375 959 1747 
Q 959 1119 1226 758 
Q 1494 397 1959 397 
Q 2419 397 2687 759 
Q 2956 1122 2956 1747 
Q 2956 2369 2687 2733 
Q 2419 3097 1959 3097 
z
M 1959 3584 
Q 2709 3584 3137 3096 
Q 3566 2609 3566 1747 
Q 3566 888 3137 398 
Q 2709 -91 1959 -91 
Q 1206 -91 779 398 
Q 353 888 353 1747 
Q 353 2609 779 3096 
Q 1206 3584 1959 3584 
z
" transform="scale(0.015625)"/>
       <path id="DejaVuSans-41" d="M 2188 4044 
L 1331 1722 
L 3047 1722 
L 2188 4044 
z
M 1831 4666 
L 2547 4666 
L 4325 0 
L 3669 0 
L 3244 1197 
L 1141 1197 
L 716 0 
L 50 0 
L 1831 4666 
z
" transform="scale(0.015625)"/>
       <path id="DejaVuSans-31" d="M 794 531 
L 1825 531 
L 1825 4091 
L 703 3866 
L 703 4441 
L 1819 4666 
L 2450 4666 
L 2450 531 
L 3481 531 
L 3481 0 
L 794 0 
L 794 531 
z
" transform="scale(0.015625)"/>
       <path id="DejaVuSans-20" transform="scale(0.015625)"/>
       <path id="DejaVuSans-28" d="M 1984 4856 
Q 1566 4138 1362 3434 
Q 1159 2731 1159 2009 
Q 1159 1288 1364 580 
Q 1569 -128 1984 -844 
L 1484 -844 
Q 1016 -109 783 600 
Q 550 1309 550 2009 
Q 550 2706 781 3412 
Q 1013 4119 1484 4856 
L 1984 4856 
z
" transform="scale(0.015625)"/>
       <path id="DejaVuSans-39" d="M 703 97 
L 703 672 
Q 941 559 1184 500 
Q 1428 441 1663 441 
Q 2288 441 2617 861 
Q 2947 1281 2994 2138 
Q 2813 1869 2534 1725 
Q 2256 1581 1919 1581 
Q 1219 1581 811 2004 
Q 403 2428 403 3163 
Q 403 3881 828 4315 
Q 1253 4750 1959 4750 
Q 2769 4750 3195 4129 
Q 3622 3509 3622 2328 
Q 3622 1225 3098 567 
Q 2575 -91 1691 -91 
Q 1453 -91 1209 -44 
Q 966 3 703 97 
z
M 1959 2075 
Q 2384 2075 2632 2365 
Q 2881 2656 2881 3163 
Q 2881 3666 2632 3958 
Q 2384 4250 1959 4250 
Q 1534 4250 1286 3958 
Q 1038 3666 1038 3163 
Q 1038 2656 1286 2365 
Q 1534 2075 1959 2075 
z
" transform="scale(0.015625)"/>
       <path id="DejaVuSans-25" d="M 4653 2053 
Q 4381 2053 4226 1822 
Q 4072 1591 4072 1178 
Q 4072 772 4226 539 
Q 4381 306 4653 306 
Q 4919 306 5073 539 
Q 5228 772 5228 1178 
Q 5228 1588 5073 1820 
Q 4919 2053 4653 2053 
z
M 4653 2450 
Q 5147 2450 5437 2106 
Q 5728 1763 5728 1178 
Q 5728 594 5436 251 
Q 5144 -91 4653 -91 
Q 4153 -91 3862 251 
Q 3572 594 3572 1178 
Q 3572 1766 3864 2108 
Q 4156 2450 4653 2450 
z
M 1428 4353 
Q 1159 4353 1004 4120 
Q 850 3888 850 3481 
Q 850 3069 1003 2837 
Q 1156 2606 1428 2606 
Q 1700 2606 1854 2837 
Q 2009 3069 2009 3481 
Q 2009 3884 1853 4118 
Q 1697 4353 1428 4353 
z
M 4250 4750 
L 4750 4750 
L 1831 -91 
L 1331 -91 
L 4250 4750 
z
M 1428 4750 
Q 1922 4750 2215 4408 
Q 2509 4066 2509 3481 
Q 2509 2891 2217 2550 
Q 1925 2209 1428 2209 
Q 931 2209 642 2551 
Q 353 2894 353 3481 
Q 353 4063 643 4406 
Q 934 4750 1428 4750 
z
" transform="scale(0.015625)"/>
       <path id="DejaVuSans-29" d="M 513 4856 
L 1013 4856 
Q 1481 4119 1714 3412 
Q 1947 2706 1947 2009 
Q 1947 1309 1714 600 
Q 1481 -109 1013 -844 
L 513 -844 
Q 928 -128 1133 580 
Q 1338 1288 1338 2009 
Q 1338 2731 1133 3434 
Q 928 4138 513 4856 
z
" transform="scale(0.015625)"/>
      </defs>
      <use xlink:href="#DejaVuSans-50"/>
      <use xlink:href="#DejaVuSans-43" x="60.302734"/>
      <use xlink:href="#DejaVuSans-6f" x="130.126953"/>
      <use xlink:href="#DejaVuSans-41" x="191.308594"/>
      <use xlink:href="#DejaVuSans-31" x="259.716797"/>
      <use xlink:href="#DejaVuSans-20" x="323.339844"/>
      <use xlink:href="#DejaVuSans-28" x="355.126953"/>
      <use xlink:href="#DejaVuSans-31" x="394.140625"/>
      <use xlink:href="#DejaVuSans-39" x="457.763672"/>
      <use xlink:href="#DejaVuSans-2e" x="521.386719"/>
      <use xlink:href="#DejaVuSans-31" x="553.173828"/>
      <use xlink:href="#DejaVuSans-30" x="616.796875"/>
      <use xlink:href="#DejaVuSans-25" x="680.419922"/>
      <use xlink:href="#DejaVuSans-29" x="775.439453"/>
     </g>
    </g>
   </g>
   <g id="matplotlib.axis_2">
    <g id="ytick_1">
     <g id="line2d_6">
      <path d="M 70.68 437.47773 
L 709.2 437.47773 
" clip-path="url(#p985c1cf5f9)" style="fill: none; stroke: #ffffff; stroke-width: 1.5; stroke-linecap: round"/>
     </g>
     <g id="text_7">
      <!-- −0.2 -->
      <g style="fill: #555555" transform="translate(29.040625 442.036793) scale(0.12 -0.12)">
       <use xlink:href="#DejaVuSans-2212"/>
       <use xlink:href="#DejaVuSans-30" x="83.789062"/>
       <use xlink:href="#DejaVuSans-2e" x="147.412109"/>
       <use xlink:href="#DejaVuSans-32" x="179.199219"/>
      </g>
     </g>
    </g>
    <g id="ytick_2">
     <g id="line2d_7">
      <path d="M 70.68 340.98334 
L 709.2 340.98334 
" clip-path="url(#p985c1cf5f9)" style="fill: none; stroke: #ffffff; stroke-width: 1.5; stroke-linecap: round"/>
     </g>
     <g id="text_8">
      <!-- 0.0 -->
      <g style="fill: #555555" transform="translate(39.09625 345.542402) scale(0.12 -0.12)">
       <use xlink:href="#DejaVuSans-30"/>
       <use xlink:href="#DejaVuSans-2e" x="63.623047"/>
       <use xlink:href="#DejaVuSans-30" x="95.410156"/>
      </g>
     </g>
    </g>
    <g id="ytick_3">
     <g id="line2d_8">
      <path d="M 70.68 244.488949 
L 709.2 244.488949 
" clip-path="url(#p985c1cf5f9)" style="fill: none; stroke: #ffffff; stroke-width: 1.5; stroke-linecap: round"/>
     </g>
     <g id="text_9">
      <!-- 0.2 -->
      <g style="fill: #555555" transform="translate(39.09625 249.048011) scale(0.12 -0.12)">
       <use xlink:href="#DejaVuSans-30"/>
       <use xlink:href="#DejaVuSans-2e" x="63.623047"/>
       <use xlink:href="#DejaVuSans-32" x="95.410156"/>
      </g>
     </g>
    </g>
    <g id="ytick_4">
     <g id="line2d_9">
      <path d="M 70.68 147.994558 
L 709.2 147.994558 
" clip-path="url(#p985c1cf5f9)" style="fill: none; stroke: #ffffff; stroke-width: 1.5; stroke-linecap: round"/>
     </g>
     <g id="text_10">
      <!-- 0.4 -->
      <g style="fill: #555555" transform="translate(39.09625 152.55362) scale(0.12 -0.12)">
       <use xlink:href="#DejaVuSans-30"/>
       <use xlink:href="#DejaVuSans-2e" x="63.623047"/>
       <use xlink:href="#DejaVuSans-34" x="95.410156"/>
      </g>
     </g>
    </g>
    <g id="ytick_5">
     <g id="line2d_10">
      <path d="M 70.68 51.500167 
L 709.2 51.500167 
" clip-path="url(#p985c1cf5f9)" style="fill: none; stroke: #ffffff; stroke-width: 1.5; stroke-linecap: round"/>
     </g>
     <g id="text_11">
      <!-- 0.6 -->
      <g style="fill: #555555" transform="translate(39.09625 56.059229) scale(0.12 -0.12)">
       <defs>
        <path id="DejaVuSans-36" d="M 2113 2584 
Q 1688 2584 1439 2293 
Q 1191 2003 1191 1497 
Q 1191 994 1439 701 
Q 1688 409 2113 409 
Q 2538 409 2786 701 
Q 3034 994 3034 1497 
Q 3034 2003 2786 2293 
Q 2538 2584 2113 2584 
z
M 3366 4563 
L 3366 3988 
Q 3128 4100 2886 4159 
Q 2644 4219 2406 4219 
Q 1781 4219 1451 3797 
Q 1122 3375 1075 2522 
Q 1259 2794 1537 2939 
Q 1816 3084 2150 3084 
Q 2853 3084 3261 2657 
Q 3669 2231 3669 1497 
Q 3669 778 3244 343 
Q 2819 -91 2113 -91 
Q 1303 -91 875 529 
Q 447 1150 447 2328 
Q 447 3434 972 4092 
Q 1497 4750 2381 4750 
Q 2619 4750 2861 4703 
Q 3103 4656 3366 4563 
z
" transform="scale(0.015625)"/>
       </defs>
       <use xlink:href="#DejaVuSans-30"/>
       <use xlink:href="#DejaVuSans-2e" x="63.623047"/>
       <use xlink:href="#DejaVuSans-36" x="95.410156"/>
      </g>
     </g>
    </g>
    <g id="text_12">
     <!-- PCoA2 (15.83%) -->
     <g style="fill: #555555" transform="translate(21.921094 338.073984) rotate(-90) scale(0.15 -0.15)">
      <defs>
       <path id="DejaVuSans-35" d="M 691 4666 
L 3169 4666 
L 3169 4134 
L 1269 4134 
L 1269 2991 
Q 1406 3038 1543 3061 
Q 1681 3084 1819 3084 
Q 2600 3084 3056 2656 
Q 3513 2228 3513 1497 
Q 3513 744 3044 326 
Q 2575 -91 1722 -91 
Q 1428 -91 1123 -41 
Q 819 9 494 109 
L 494 744 
Q 775 591 1075 516 
Q 1375 441 1709 441 
Q 2250 441 2565 725 
Q 2881 1009 2881 1497 
Q 2881 1984 2565 2268 
Q 2250 2553 1709 2553 
Q 1456 2553 1204 2497 
Q 953 2441 691 2322 
L 691 4666 
z
" transform="scale(0.015625)"/>
       <path id="DejaVuSans-38" d="M 2034 2216 
Q 1584 2216 1326 1975 
Q 1069 1734 1069 1313 
Q 1069 891 1326 650 
Q 1584 409 2034 409 
Q 2484 409 2743 651 
Q 3003 894 3003 1313 
Q 3003 1734 2745 1975 
Q 2488 2216 2034 2216 
z
M 1403 2484 
Q 997 2584 770 2862 
Q 544 3141 544 3541 
Q 544 4100 942 4425 
Q 1341 4750 2034 4750 
Q 2731 4750 3128 4425 
Q 3525 4100 3525 3541 
Q 3525 3141 3298 2862 
Q 3072 2584 2669 2484 
Q 3125 2378 3379 2068 
Q 3634 1759 3634 1313 
Q 3634 634 3220 271 
Q 2806 -91 2034 -91 
Q 1263 -91 848 271 
Q 434 634 434 1313 
Q 434 1759 690 2068 
Q 947 2378 1403 2484 
z
M 1172 3481 
Q 1172 3119 1398 2916 
Q 1625 2713 2034 2713 
Q 2441 2713 2670 2916 
Q 2900 3119 2900 3481 
Q 2900 3844 2670 4047 
Q 2441 4250 2034 4250 
Q 1625 4250 1398 4047 
Q 1172 3844 1172 3481 
z
" transform="scale(0.015625)"/>
       <path id="DejaVuSans-33" d="M 2597 2516 
Q 3050 2419 3304 2112 
Q 3559 1806 3559 1356 
Q 3559 666 3084 287 
Q 2609 -91 1734 -91 
Q 1441 -91 1130 -33 
Q 819 25 488 141 
L 488 750 
Q 750 597 1062 519 
Q 1375 441 1716 441 
Q 2309 441 2620 675 
Q 2931 909 2931 1356 
Q 2931 1769 2642 2001 
Q 2353 2234 1838 2234 
L 1294 2234 
L 1294 2753 
L 1863 2753 
Q 2328 2753 2575 2939 
Q 2822 3125 2822 3475 
Q 2822 3834 2567 4026 
Q 2313 4219 1838 4219 
Q 1578 4219 1281 4162 
Q 984 4106 628 3988 
L 628 4550 
Q 988 4650 1302 4700 
Q 1616 4750 1894 4750 
Q 2613 4750 3031 4423 
Q 3450 4097 3450 3541 
Q 3450 3153 3228 2886 
Q 3006 2619 2597 2516 
z
" transform="scale(0.015625)"/>
      </defs>
      <use xlink:href="#DejaVuSans-50"/>
      <use xlink:href="#DejaVuSans-43" x="60.302734"/>
      <use xlink:href="#DejaVuSans-6f" x="130.126953"/>
      <use xlink:href="#DejaVuSans-41" x="191.308594"/>
      <use xlink:href="#DejaVuSans-32" x="259.716797"/>
      <use xlink:href="#DejaVuSans-20" x="323.339844"/>
      <use xlink:href="#DejaVuSans-28" x="355.126953"/>
      <use xlink:href="#DejaVuSans-31" x="394.140625"/>
      <use xlink:href="#DejaVuSans-35" x="457.763672"/>
      <use xlink:href="#DejaVuSans-2e" x="521.386719"/>
      <use xlink:href="#DejaVuSans-38" x="553.173828"/>
      <use xlink:href="#DejaVuSans-33" x="616.796875"/>
      <use xlink:href="#DejaVuSans-25" x="680.419922"/>
      <use xlink:href="#DejaVuSans-29" x="775.439453"/>
     </g>
    </g>
   </g>
   <g id="PathCollection_1">
    <defs>
     <path id="C0_0_499e61c801" d="M 0 5 
C 1.326016 5 2.597899 4.473168 3.535534 3.535534 
C 4.473168 2.597899 5 1.326016 5 -0 
C 5 -1.326016 4.473168 -2.597899 3.535534 -3.535534 
C 2.597899 -4.473168 1.326016 -5 0 -5 
C -1.326016 -5 -2.597899 -4.473168 -3.535534 -3.535534 
C -4.473168 -2.597899 -5 -1.326016 -5 0 
C -5 1.326016 -4.473168 2.597899 -3.535534 3.535534 
C -2.597899 4.473168 -1.326016 5 0 5 
z
"/>
    </defs>
    <g clip-path="url(#p985c1cf5f9)">
     <use xlink:href="#C0_0_499e61c801" x="141.557666" y="269.851606" style="fill: #dfc27d; stroke: #ffffff; stroke-width: 0.8"/>
    </g>
    <g clip-path="url(#p985c1cf5f9)">
     <use xlink:href="#C0_0_499e61c801" x="301.815137" y="310.02353" style="fill: #dfc27d; stroke: #ffffff; stroke-width: 0.8"/>
    </g>
    <g clip-path="url(#p985c1cf5f9)">
     <use xlink:href="#C0_0_499e61c801" x="116.421392" y="274.678447" style="fill: #dfc27d; stroke: #ffffff; stroke-width: 0.8"/>
    </g>
    <g clip-path="url(#p985c1cf5f9)">
     <use xlink:href="#C0_0_499e61c801" x="384.284073" y="270.333246" style="fill: #dfc27d; stroke: #ffffff; stroke-width: 0.8"/>
    </g>
    <g clip-path="url(#p985c1cf5f9)">
     <use xlink:href="#C0_0_499e61c801" x="128.997949" y="273.42246" style="fill: #dfc27d; stroke: #ffffff; stroke-width: 0.8"/>
    </g>
    <g clip-path="url(#p985c1cf5f9)">
     <use xlink:href="#C0_0_499e61c801" x="160.632796" y="295.490036" style="fill: #dfc27d; stroke: #ffffff; stroke-width: 0.8"/>
    </g>
    <g clip-path="url(#p985c1cf5f9)">
     <use xlink:href="#C0_0_499e61c801" x="302.208956" y="418.480593" style="fill: #dfc27d; stroke: #ffffff; stroke-width: 0.8"/>
    </g>
    <g clip-path="url(#p985c1cf5f9)">
     <use xlink:href="#C0_0_499e61c801" x="471.946716" y="477.381073" style="fill: #80cdc1; stroke: #ffffff; stroke-width: 0.8"/>
    </g>
    <g clip-path="url(#p985c1cf5f9)">
     <use xlink:href="#C0_0_499e61c801" x="106.426198" y="275.395485" style="fill: #dfc27d; stroke: #ffffff; stroke-width: 0.8"/>
    </g>
    <g clip-path="url(#p985c1cf5f9)">
     <use xlink:href="#C0_0_499e61c801" x="144.814591" y="344.55978" style="fill: #dfc27d; stroke: #ffffff; stroke-width: 0.8"/>
    </g>
    <g clip-path="url(#p985c1cf5f9)">
     <use xlink:href="#C0_0_499e61c801" x="249.747139" y="339.268951" style="fill: #dfc27d; stroke: #ffffff; stroke-width: 0.8"/>
    </g>
    <g clip-path="url(#p985c1cf5f9)">
     <use xlink:href="#C0_0_499e61c801" x="304.062241" y="418.889234" style="fill: #dfc27d; stroke: #ffffff; stroke-width: 0.8"/>
    </g>
    <g clip-path="url(#p985c1cf5f9)">
     <use xlink:href="#C0_0_499e61c801" x="414.63743" y="440.401199" style="fill: #80cdc1; stroke: #ffffff; stroke-width: 0.8"/>
    </g>
    <g clip-path="url(#p985c1cf5f9)">
     <use xlink:href="#C0_0_499e61c801" x="248.608752" y="347.884767" style="fill: #dfc27d; stroke: #ffffff; stroke-width: 0.8"/>
    </g>
    <g clip-path="url(#p985c1cf5f9)">
     <use xlink:href="#C0_0_499e61c801" x="172.283416" y="303.617363" style="fill: #dfc27d; stroke: #ffffff; stroke-width: 0.8"/>
    </g>
    <g clip-path="url(#p985c1cf5f9)">
     <use xlink:href="#C0_0_499e61c801" x="306.515007" y="352.801819" style="fill: #dfc27d; stroke: #ffffff; stroke-width: 0.8"/>
    </g>
    <g clip-path="url(#p985c1cf5f9)">
     <use xlink:href="#C0_0_499e61c801" x="191.840062" y="295.249513" style="fill: #dfc27d; stroke: #ffffff; stroke-width: 0.8"/>
    </g>
    <g clip-path="url(#p985c1cf5f9)">
     <use xlink:href="#C0_0_499e61c801" x="283.198822" y="431.401109" style="fill: #dfc27d; stroke: #ffffff; stroke-width: 0.8"/>
    </g>
    <g clip-path="url(#p985c1cf5f9)">
     <use xlink:href="#C0_0_499e61c801" x="387.669047" y="473.514266" style="fill: #dfc27d; stroke: #ffffff; stroke-width: 0.8"/>
    </g>
    <g clip-path="url(#p985c1cf5f9)">
     <use xlink:href="#C0_0_499e61c801" x="493.499973" y="452.268252" style="fill: #80cdc1; stroke: #ffffff; stroke-width: 0.8"/>
    </g>
    <g clip-path="url(#p985c1cf5f9)">
     <use xlink:href="#C0_0_499e61c801" x="476.774153" y="487.59837" style="fill: #80cdc1; stroke: #ffffff; stroke-width: 0.8"/>
    </g>
    <g clip-path="url(#p985c1cf5f9)">
     <use xlink:href="#C0_0_499e61c801" x="414.189629" y="445.257934" style="fill: #80cdc1; stroke: #ffffff; stroke-width: 0.8"/>
    </g>
    <g clip-path="url(#p985c1cf5f9)">
     <use xlink:href="#C0_0_499e61c801" x="663.682893" y="475.89383" style="fill: #80cdc1; stroke: #ffffff; stroke-width: 0.8"/>
    </g>
    <g clip-path="url(#p985c1cf5f9)">
     <use xlink:href="#C0_0_499e61c801" x="494.912562" y="222.338932" style="fill: #002721; stroke: #ffffff; stroke-width: 0.8"/>
    </g>
    <g clip-path="url(#p985c1cf5f9)">
     <use xlink:href="#C0_0_499e61c801" x="579.125554" y="472.707343" style="fill: #80cdc1; stroke: #ffffff; stroke-width: 0.8"/>
    </g>
    <g clip-path="url(#p985c1cf5f9)">
     <use xlink:href="#C0_0_499e61c801" x="542.942197" y="474.835059" style="fill: #80cdc1; stroke: #ffffff; stroke-width: 0.8"/>
    </g>
    <g clip-path="url(#p985c1cf5f9)">
     <use xlink:href="#C0_0_499e61c801" x="578.152582" y="445.910046" style="fill: #80cdc1; stroke: #ffffff; stroke-width: 0.8"/>
    </g>
    <g clip-path="url(#p985c1cf5f9)">
     <use xlink:href="#C0_0_499e61c801" x="648.931478" y="485.029216" style="fill: #80cdc1; stroke: #ffffff; stroke-width: 0.8"/>
    </g>
    <g clip-path="url(#p985c1cf5f9)">
     <use xlink:href="#C0_0_499e61c801" x="329.195819" y="395.576689" style="fill: #dfc27d; stroke: #ffffff; stroke-width: 0.8"/>
    </g>
    <g clip-path="url(#p985c1cf5f9)">
     <use xlink:href="#C0_0_499e61c801" x="319.053745" y="388.132817" style="fill: #dfc27d; stroke: #ffffff; stroke-width: 0.8"/>
    </g>
    <g clip-path="url(#p985c1cf5f9)">
     <use xlink:href="#C0_0_499e61c801" x="397.855158" y="416.346809" style="fill: #dfc27d; stroke: #ffffff; stroke-width: 0.8"/>
    </g>
    <g clip-path="url(#p985c1cf5f9)">
     <use xlink:href="#C0_0_499e61c801" x="498.11793" y="272.291062" style="fill: #002721; stroke: #ffffff; stroke-width: 0.8"/>
    </g>
    <g clip-path="url(#p985c1cf5f9)">
     <use xlink:href="#C0_0_499e61c801" x="359.497906" y="442.964531" style="fill: #dfc27d; stroke: #ffffff; stroke-width: 0.8"/>
    </g>
    <g clip-path="url(#p985c1cf5f9)">
     <use xlink:href="#C0_0_499e61c801" x="340.706301" y="388.49858" style="fill: #dfc27d; stroke: #ffffff; stroke-width: 0.8"/>
    </g>
    <g clip-path="url(#p985c1cf5f9)">
     <use xlink:href="#C0_0_499e61c801" x="157.666314" y="270.291184" style="fill: #dfc27d; stroke: #ffffff; stroke-width: 0.8"/>
    </g>
    <g clip-path="url(#p985c1cf5f9)">
     <use xlink:href="#C0_0_499e61c801" x="118.211037" y="295.25607" style="fill: #dfc27d; stroke: #ffffff; stroke-width: 0.8"/>
    </g>
    <g clip-path="url(#p985c1cf5f9)">
     <use xlink:href="#C0_0_499e61c801" x="99.703636" y="288.279412" style="fill: #dfc27d; stroke: #ffffff; stroke-width: 0.8"/>
    </g>
    <g clip-path="url(#p985c1cf5f9)">
     <use xlink:href="#C0_0_499e61c801" x="126.913859" y="268.376855" style="fill: #dfc27d; stroke: #ffffff; stroke-width: 0.8"/>
    </g>
    <g clip-path="url(#p985c1cf5f9)">
     <use xlink:href="#C0_0_499e61c801" x="136.104026" y="313.273359" style="fill: #dfc27d; stroke: #ffffff; stroke-width: 0.8"/>
    </g>
    <g clip-path="url(#p985c1cf5f9)">
     <use xlink:href="#C0_0_499e61c801" x="260.808424" y="307.02262" style="fill: #dfc27d; stroke: #ffffff; stroke-width: 0.8"/>
    </g>
    <g clip-path="url(#p985c1cf5f9)">
     <use xlink:href="#C0_0_499e61c801" x="171.904635" y="328.251329" style="fill: #dfc27d; stroke: #ffffff; stroke-width: 0.8"/>
    </g>
    <g clip-path="url(#p985c1cf5f9)">
     <use xlink:href="#C0_0_499e61c801" x="432.42618" y="447.448078" style="fill: #80cdc1; stroke: #ffffff; stroke-width: 0.8"/>
    </g>
    <g clip-path="url(#p985c1cf5f9)">
     <use xlink:href="#C0_0_499e61c801" x="459.231644" y="401.186309" style="fill: #80cdc1; stroke: #ffffff; stroke-width: 0.8"/>
    </g>
    <g clip-path="url(#p985c1cf5f9)">
     <use xlink:href="#C0_0_499e61c801" x="444.866389" y="455.144632" style="fill: #80cdc1; stroke: #ffffff; stroke-width: 0.8"/>
    </g>
    <g clip-path="url(#p985c1cf5f9)">
     <use xlink:href="#C0_0_499e61c801" x="146.380962" y="311.976256" style="fill: #dfc27d; stroke: #ffffff; stroke-width: 0.8"/>
    </g>
    <g clip-path="url(#p985c1cf5f9)">
     <use xlink:href="#C0_0_499e61c801" x="512.118674" y="432.69413" style="fill: #80cdc1; stroke: #ffffff; stroke-width: 0.8"/>
    </g>
    <g clip-path="url(#p985c1cf5f9)">
     <use xlink:href="#C0_0_499e61c801" x="441.706267" y="468.71086" style="fill: #80cdc1; stroke: #ffffff; stroke-width: 0.8"/>
    </g>
    <g clip-path="url(#p985c1cf5f9)">
     <use xlink:href="#C0_0_499e61c801" x="517.427306" y="468.652619" style="fill: #80cdc1; stroke: #ffffff; stroke-width: 0.8"/>
    </g>
    <g clip-path="url(#p985c1cf5f9)">
     <use xlink:href="#C0_0_499e61c801" x="610.680169" y="410.239896" style="fill: #80cdc1; stroke: #ffffff; stroke-width: 0.8"/>
    </g>
    <g clip-path="url(#p985c1cf5f9)">
     <use xlink:href="#C0_0_499e61c801" x="493.17845" y="248.102791" style="fill: #002721; stroke: #ffffff; stroke-width: 0.8"/>
    </g>
    <g clip-path="url(#p985c1cf5f9)">
     <use xlink:href="#C0_0_499e61c801" x="423.844703" y="379.220562" style="fill: #80cdc1; stroke: #ffffff; stroke-width: 0.8"/>
    </g>
    <g clip-path="url(#p985c1cf5f9)">
     <use xlink:href="#C0_0_499e61c801" x="593.673208" y="161.464682" style="fill: #80cdc1; stroke: #ffffff; stroke-width: 0.8"/>
    </g>
    <g clip-path="url(#p985c1cf5f9)">
     <use xlink:href="#C0_0_499e61c801" x="621.193669" y="88.983955" style="fill: #80cdc1; stroke: #ffffff; stroke-width: 0.8"/>
    </g>
    <g clip-path="url(#p985c1cf5f9)">
     <use xlink:href="#C0_0_499e61c801" x="439.289452" y="355.181136" style="fill: #002721; stroke: #ffffff; stroke-width: 0.8"/>
    </g>
    <g clip-path="url(#p985c1cf5f9)">
     <use xlink:href="#C0_0_499e61c801" x="509.714887" y="298.58785" style="fill: #80cdc1; stroke: #ffffff; stroke-width: 0.8"/>
    </g>
    <g clip-path="url(#p985c1cf5f9)">
     <use xlink:href="#C0_0_499e61c801" x="530.446845" y="499.126364" style="fill: #80cdc1; stroke: #ffffff; stroke-width: 0.8"/>
    </g>
    <g clip-path="url(#p985c1cf5f9)">
     <use xlink:href="#C0_0_499e61c801" x="462.645876" y="273.693127" style="fill: #002721; stroke: #ffffff; stroke-width: 0.8"/>
    </g>
    <g clip-path="url(#p985c1cf5f9)">
     <use xlink:href="#C0_0_499e61c801" x="658.673614" y="467.222414" style="fill: #80cdc1; stroke: #ffffff; stroke-width: 0.8"/>
    </g>
    <g clip-path="url(#p985c1cf5f9)">
     <use xlink:href="#C0_0_499e61c801" x="585.284797" y="368.852223" style="fill: #80cdc1; stroke: #ffffff; stroke-width: 0.8"/>
    </g>
    <g clip-path="url(#p985c1cf5f9)">
     <use xlink:href="#C0_0_499e61c801" x="637.117499" y="484.769892" style="fill: #80cdc1; stroke: #ffffff; stroke-width: 0.8"/>
    </g>
    <g clip-path="url(#p985c1cf5f9)">
     <use xlink:href="#C0_0_499e61c801" x="562.543504" y="388.382474" style="fill: #80cdc1; stroke: #ffffff; stroke-width: 0.8"/>
    </g>
    <g clip-path="url(#p985c1cf5f9)">
     <use xlink:href="#C0_0_499e61c801" x="642.144475" y="81.562857" style="fill: #80cdc1; stroke: #ffffff; stroke-width: 0.8"/>
    </g>
    <g clip-path="url(#p985c1cf5f9)">
     <use xlink:href="#C0_0_499e61c801" x="671.569307" y="54.853636" style="fill: #80cdc1; stroke: #ffffff; stroke-width: 0.8"/>
    </g>
    <g clip-path="url(#p985c1cf5f9)">
     <use xlink:href="#C0_0_499e61c801" x="611.909279" y="99.243162" style="fill: #80cdc1; stroke: #ffffff; stroke-width: 0.8"/>
    </g>
    <g clip-path="url(#p985c1cf5f9)">
     <use xlink:href="#C0_0_499e61c801" x="536.907894" y="276.345397" style="fill: #80cdc1; stroke: #ffffff; stroke-width: 0.8"/>
    </g>
    <g clip-path="url(#p985c1cf5f9)">
     <use xlink:href="#C0_0_499e61c801" x="507.000928" y="264.194878" style="fill: #80cdc1; stroke: #ffffff; stroke-width: 0.8"/>
    </g>
    <g clip-path="url(#p985c1cf5f9)">
     <use xlink:href="#C0_0_499e61c801" x="663.96302" y="140.29598" style="fill: #80cdc1; stroke: #ffffff; stroke-width: 0.8"/>
    </g>
    <g clip-path="url(#p985c1cf5f9)">
     <use xlink:href="#C0_0_499e61c801" x="680.176364" y="83.534023" style="fill: #80cdc1; stroke: #ffffff; stroke-width: 0.8"/>
    </g>
    <g clip-path="url(#p985c1cf5f9)">
     <use xlink:href="#C0_0_499e61c801" x="469.470493" y="320.382856" style="fill: #80cdc1; stroke: #ffffff; stroke-width: 0.8"/>
    </g>
    <g clip-path="url(#p985c1cf5f9)">
     <use xlink:href="#C0_0_499e61c801" x="587.819976" y="411.491767" style="fill: #80cdc1; stroke: #ffffff; stroke-width: 0.8"/>
    </g>
    <g clip-path="url(#p985c1cf5f9)">
     <use xlink:href="#C0_0_499e61c801" x="510.064762" y="260.052951" style="fill: #80cdc1; stroke: #ffffff; stroke-width: 0.8"/>
    </g>
    <g clip-path="url(#p985c1cf5f9)">
     <use xlink:href="#C0_0_499e61c801" x="543.515963" y="200.157912" style="fill: #80cdc1; stroke: #ffffff; stroke-width: 0.8"/>
    </g>
   </g>
   <g id="patch_3">
    <path d="M 493.893064 539.852717 
C 518.257961 543.246024 547.25344 526.838696 574.493585 494.244258 
C 601.733729 461.649819 624.994501 415.529461 639.152985 366.040657 
C 653.31147 316.551853 657.211689 267.735144 649.994665 230.341845 
C 642.777642 192.948546 625.032613 170.031653 600.667716 166.638347 
C 576.302819 163.24504 547.307339 179.652368 520.067195 212.246806 
C 492.82705 244.841245 469.566279 290.961603 455.407794 340.450407 
C 441.24931 389.939211 437.34909 438.755919 444.566114 476.149219 
C 451.783138 513.542518 469.528166 536.459411 493.893064 539.852717 
z
" clip-path="url(#p985c1cf5f9)" style="fill: #80cdc1; opacity: 0.16; stroke: #80cdc1; stroke-width: 0.5; stroke-linejoin: miter"/>
   </g>
   <g id="patch_4">
    <path d="M 350.673752 410.061253 
C 361.086629 401.680987 358.342212 385.941502 343.044929 366.309237 
C 327.747646 346.676971 301.146452 324.754814 269.09995 305.370864 
C 237.053448 285.986914 202.178094 270.723786 172.15478 262.943007 
C 142.131466 255.162227 119.411462 255.499063 108.998586 263.879329 
C 98.585709 272.259594 101.330125 287.999079 116.627409 307.631344 
C 131.924692 327.26361 158.525886 349.185767 190.572388 368.569717 
C 222.61889 387.953667 257.494243 403.216795 287.517558 410.997574 
C 317.540872 418.778354 340.260876 418.441518 350.673752 410.061253 
z
" clip-path="url(#p985c1cf5f9)" style="fill: #dfc27d; opacity: 0.16; stroke: #dfc27d; stroke-width: 0.5; stroke-linejoin: miter"/>
   </g>
   <g id="line2d_11"/>
   <g id="line2d_12"/>
   <g id="line2d_13"/>
   <g id="patch_5">
    <path d="M 70.68 521.34 
L 70.68 32.64 
" style="fill: none; stroke: #ffffff; stroke-linejoin: miter; stroke-linecap: square"/>
   </g>
   <g id="patch_6">
    <path d="M 709.2 521.34 
L 709.2 32.64 
" style="fill: none; stroke: #ffffff; stroke-linejoin: miter; stroke-linecap: square"/>
   </g>
   <g id="patch_7">
    <path d="M 70.68 521.34 
L 709.2 521.34 
" style="fill: none; stroke: #ffffff; stroke-linejoin: miter; stroke-linecap: square"/>
   </g>
   <g id="patch_8">
    <path d="M 70.68 32.64 
L 709.2 32.64 
" style="fill: none; stroke: #ffffff; stroke-linejoin: miter; stroke-linecap: square"/>
   </g>
   <g id="text_13">
    <!-- PCoA - Bray Curtis -->
    <g style="fill: #262626" transform="translate(298.468125 26.64) scale(0.2 -0.2)">
     <defs>
      <path id="DejaVuSans-2d" d="M 313 2009 
L 1997 2009 
L 1997 1497 
L 313 1497 
L 313 2009 
z
" transform="scale(0.015625)"/>
      <path id="DejaVuSans-42" d="M 1259 2228 
L 1259 519 
L 2272 519 
Q 2781 519 3026 730 
Q 3272 941 3272 1375 
Q 3272 1813 3026 2020 
Q 2781 2228 2272 2228 
L 1259 2228 
z
M 1259 4147 
L 1259 2741 
L 2194 2741 
Q 2656 2741 2882 2914 
Q 3109 3088 3109 3444 
Q 3109 3797 2882 3972 
Q 2656 4147 2194 4147 
L 1259 4147 
z
M 628 4666 
L 2241 4666 
Q 2963 4666 3353 4366 
Q 3744 4066 3744 3513 
Q 3744 3084 3544 2831 
Q 3344 2578 2956 2516 
Q 3422 2416 3680 2098 
Q 3938 1781 3938 1306 
Q 3938 681 3513 340 
Q 3088 0 2303 0 
L 628 0 
L 628 4666 
z
" transform="scale(0.015625)"/>
      <path id="DejaVuSans-72" d="M 2631 2963 
Q 2534 3019 2420 3045 
Q 2306 3072 2169 3072 
Q 1681 3072 1420 2755 
Q 1159 2438 1159 1844 
L 1159 0 
L 581 0 
L 581 3500 
L 1159 3500 
L 1159 2956 
Q 1341 3275 1631 3429 
Q 1922 3584 2338 3584 
Q 2397 3584 2469 3576 
Q 2541 3569 2628 3553 
L 2631 2963 
z
" transform="scale(0.015625)"/>
      <path id="DejaVuSans-61" d="M 2194 1759 
Q 1497 1759 1228 1600 
Q 959 1441 959 1056 
Q 959 750 1161 570 
Q 1363 391 1709 391 
Q 2188 391 2477 730 
Q 2766 1069 2766 1631 
L 2766 1759 
L 2194 1759 
z
M 3341 1997 
L 3341 0 
L 2766 0 
L 2766 531 
Q 2569 213 2275 61 
Q 1981 -91 1556 -91 
Q 1019 -91 701 211 
Q 384 513 384 1019 
Q 384 1609 779 1909 
Q 1175 2209 1959 2209 
L 2766 2209 
L 2766 2266 
Q 2766 2663 2505 2880 
Q 2244 3097 1772 3097 
Q 1472 3097 1187 3025 
Q 903 2953 641 2809 
L 641 3341 
Q 956 3463 1253 3523 
Q 1550 3584 1831 3584 
Q 2591 3584 2966 3190 
Q 3341 2797 3341 1997 
z
" transform="scale(0.015625)"/>
      <path id="DejaVuSans-79" d="M 2059 -325 
Q 1816 -950 1584 -1140 
Q 1353 -1331 966 -1331 
L 506 -1331 
L 506 -850 
L 844 -850 
Q 1081 -850 1212 -737 
Q 1344 -625 1503 -206 
L 1606 56 
L 191 3500 
L 800 3500 
L 1894 763 
L 2988 3500 
L 3597 3500 
L 2059 -325 
z
" transform="scale(0.015625)"/>
      <path id="DejaVuSans-75" d="M 544 1381 
L 544 3500 
L 1119 3500 
L 1119 1403 
Q 1119 906 1312 657 
Q 1506 409 1894 409 
Q 2359 409 2629 706 
Q 2900 1003 2900 1516 
L 2900 3500 
L 3475 3500 
L 3475 0 
L 2900 0 
L 2900 538 
Q 2691 219 2414 64 
Q 2138 -91 1772 -91 
Q 1169 -91 856 284 
Q 544 659 544 1381 
z
M 1991 3584 
L 1991 3584 
z
" transform="scale(0.015625)"/>
      <path id="DejaVuSans-74" d="M 1172 4494 
L 1172 3500 
L 2356 3500 
L 2356 3053 
L 1172 3053 
L 1172 1153 
Q 1172 725 1289 603 
Q 1406 481 1766 481 
L 2356 481 
L 2356 0 
L 1766 0 
Q 1100 0 847 248 
Q 594 497 594 1153 
L 594 3053 
L 172 3053 
L 172 3500 
L 594 3500 
L 594 4494 
L 1172 4494 
z
" transform="scale(0.015625)"/>
      <path id="DejaVuSans-69" d="M 603 3500 
L 1178 3500 
L 1178 0 
L 603 0 
L 603 3500 
z
M 603 4863 
L 1178 4863 
L 1178 4134 
L 603 4134 
L 603 4863 
z
" transform="scale(0.015625)"/>
      <path id="DejaVuSans-73" d="M 2834 3397 
L 2834 2853 
Q 2591 2978 2328 3040 
Q 2066 3103 1784 3103 
Q 1356 3103 1142 2972 
Q 928 2841 928 2578 
Q 928 2378 1081 2264 
Q 1234 2150 1697 2047 
L 1894 2003 
Q 2506 1872 2764 1633 
Q 3022 1394 3022 966 
Q 3022 478 2636 193 
Q 2250 -91 1575 -91 
Q 1294 -91 989 -36 
Q 684 19 347 128 
L 347 722 
Q 666 556 975 473 
Q 1284 391 1588 391 
Q 1994 391 2212 530 
Q 2431 669 2431 922 
Q 2431 1156 2273 1281 
Q 2116 1406 1581 1522 
L 1381 1569 
Q 847 1681 609 1914 
Q 372 2147 372 2553 
Q 372 3047 722 3315 
Q 1072 3584 1716 3584 
Q 2034 3584 2315 3537 
Q 2597 3491 2834 3397 
z
" transform="scale(0.015625)"/>
     </defs>
     <use xlink:href="#DejaVuSans-50"/>
     <use xlink:href="#DejaVuSans-43" x="60.302734"/>
     <use xlink:href="#DejaVuSans-6f" x="130.126953"/>
     <use xlink:href="#DejaVuSans-41" x="191.308594"/>
     <use xlink:href="#DejaVuSans-20" x="259.716797"/>
     <use xlink:href="#DejaVuSans-2d" x="291.503906"/>
     <use xlink:href="#DejaVuSans-20" x="327.587891"/>
     <use xlink:href="#DejaVuSans-42" x="359.375"/>
     <use xlink:href="#DejaVuSans-72" x="427.978516"/>
     <use xlink:href="#DejaVuSans-61" x="469.091797"/>
     <use xlink:href="#DejaVuSans-79" x="530.371094"/>
     <use xlink:href="#DejaVuSans-20" x="589.550781"/>
     <use xlink:href="#DejaVuSans-43" x="621.337891"/>
     <use xlink:href="#DejaVuSans-75" x="691.162109"/>
     <use xlink:href="#DejaVuSans-72" x="754.541016"/>
     <use xlink:href="#DejaVuSans-74" x="795.654297"/>
     <use xlink:href="#DejaVuSans-69" x="834.863281"/>
     <use xlink:href="#DejaVuSans-73" x="862.646484"/>
    </g>
   </g>
   <g id="legend_1">
    <g id="patch_9">
     <path d="M 82.23 144.667969 
L 200.233359 144.667969 
Q 203.533359 144.667969 203.533359 141.367969 
L 203.533359 44.19 
Q 203.533359 40.89 200.233359 40.89 
L 82.23 40.89 
Q 78.93 40.89 78.93 44.19 
L 78.93 141.367969 
Q 78.93 144.667969 82.23 144.667969 
z
" style="fill: #e5e5e5; opacity: 0.8; stroke: #cccccc; stroke-width: 0.5; stroke-linejoin: miter"/>
    </g>
    <g id="text_14">
     <!-- Groups_RV -->
     <g style="fill: #262626" transform="translate(92.73293 61.167187) scale(0.18 -0.18)">
      <defs>
       <path id="DejaVuSans-47" d="M 3809 666 
L 3809 1919 
L 2778 1919 
L 2778 2438 
L 4434 2438 
L 4434 434 
Q 4069 175 3628 42 
Q 3188 -91 2688 -91 
Q 1594 -91 976 548 
Q 359 1188 359 2328 
Q 359 3472 976 4111 
Q 1594 4750 2688 4750 
Q 3144 4750 3555 4637 
Q 3966 4525 4313 4306 
L 4313 3634 
Q 3963 3931 3569 4081 
Q 3175 4231 2741 4231 
Q 1884 4231 1454 3753 
Q 1025 3275 1025 2328 
Q 1025 1384 1454 906 
Q 1884 428 2741 428 
Q 3075 428 3337 486 
Q 3600 544 3809 666 
z
" transform="scale(0.015625)"/>
       <path id="DejaVuSans-70" d="M 1159 525 
L 1159 -1331 
L 581 -1331 
L 581 3500 
L 1159 3500 
L 1159 2969 
Q 1341 3281 1617 3432 
Q 1894 3584 2278 3584 
Q 2916 3584 3314 3078 
Q 3713 2572 3713 1747 
Q 3713 922 3314 415 
Q 2916 -91 2278 -91 
Q 1894 -91 1617 61 
Q 1341 213 1159 525 
z
M 3116 1747 
Q 3116 2381 2855 2742 
Q 2594 3103 2138 3103 
Q 1681 3103 1420 2742 
Q 1159 2381 1159 1747 
Q 1159 1113 1420 752 
Q 1681 391 2138 391 
Q 2594 391 2855 752 
Q 3116 1113 3116 1747 
z
" transform="scale(0.015625)"/>
       <path id="DejaVuSans-5f" d="M 3263 -1063 
L 3263 -1509 
L -63 -1509 
L -63 -1063 
L 3263 -1063 
z
" transform="scale(0.015625)"/>
       <path id="DejaVuSans-52" d="M 2841 2188 
Q 3044 2119 3236 1894 
Q 3428 1669 3622 1275 
L 4263 0 
L 3584 0 
L 2988 1197 
Q 2756 1666 2539 1819 
Q 2322 1972 1947 1972 
L 1259 1972 
L 1259 0 
L 628 0 
L 628 4666 
L 2053 4666 
Q 2853 4666 3247 4331 
Q 3641 3997 3641 3322 
Q 3641 2881 3436 2590 
Q 3231 2300 2841 2188 
z
M 1259 4147 
L 1259 2491 
L 2053 2491 
Q 2509 2491 2742 2702 
Q 2975 2913 2975 3322 
Q 2975 3731 2742 3939 
Q 2509 4147 2053 4147 
L 1259 4147 
z
" transform="scale(0.015625)"/>
       <path id="DejaVuSans-56" d="M 1831 0 
L 50 4666 
L 709 4666 
L 2188 738 
L 3669 4666 
L 4325 4666 
L 2547 0 
L 1831 0 
z
" transform="scale(0.015625)"/>
      </defs>
      <use xlink:href="#DejaVuSans-47"/>
      <use xlink:href="#DejaVuSans-72" x="77.490234"/>
      <use xlink:href="#DejaVuSans-6f" x="116.353516"/>
      <use xlink:href="#DejaVuSans-75" x="177.535156"/>
      <use xlink:href="#DejaVuSans-70" x="240.914062"/>
      <use xlink:href="#DejaVuSans-73" x="304.390625"/>
      <use xlink:href="#DejaVuSans-5f" x="356.490234"/>
      <use xlink:href="#DejaVuSans-52" x="406.490234"/>
      <use xlink:href="#DejaVuSans-56" x="470.472656"/>
     </g>
    </g>
    <g id="line2d_14">
     <defs>
      <path id="meba4538670" d="M 0 5 
C 1.326016 5 2.597899 4.473168 3.535534 3.535534 
C 4.473168 2.597899 5 1.326016 5 0 
C 5 -1.326016 4.473168 -2.597899 3.535534 -3.535534 
C 2.597899 -4.473168 1.326016 -5 0 -5 
C -1.326016 -5 -2.597899 -4.473168 -3.535534 -3.535534 
C -4.473168 -2.597899 -5 -1.326016 -5 0 
C -5 1.326016 -4.473168 2.597899 -3.535534 3.535534 
C -2.597899 4.473168 -1.326016 5 0 5 
z
" style="stroke: #ffffff; stroke-width: 0.8"/>
     </defs>
     <g>
      <use xlink:href="#meba4538670" x="102.03" y="80.423672" style="fill: #dfc27d; stroke: #ffffff; stroke-width: 0.8"/>
     </g>
    </g>
    <g id="text_15">
     <!-- Group I -->
     <g style="fill: #262626" transform="translate(131.73 86.198672) scale(0.165 -0.165)">
      <defs>
       <path id="DejaVuSans-49" d="M 628 4666 
L 1259 4666 
L 1259 0 
L 628 0 
L 628 4666 
z
" transform="scale(0.015625)"/>
      </defs>
      <use xlink:href="#DejaVuSans-47"/>
      <use xlink:href="#DejaVuSans-72" x="77.490234"/>
      <use xlink:href="#DejaVuSans-6f" x="116.353516"/>
      <use xlink:href="#DejaVuSans-75" x="177.535156"/>
      <use xlink:href="#DejaVuSans-70" x="240.914062"/>
      <use xlink:href="#DejaVuSans-20" x="304.390625"/>
      <use xlink:href="#DejaVuSans-49" x="336.177734"/>
     </g>
    </g>
    <g id="line2d_15">
     <defs>
      <path id="m9c63b36ec1" d="M 0 5 
C 1.326016 5 2.597899 4.473168 3.535534 3.535534 
C 4.473168 2.597899 5 1.326016 5 0 
C 5 -1.326016 4.473168 -2.597899 3.535534 -3.535534 
C 2.597899 -4.473168 1.326016 -5 0 -5 
C -1.326016 -5 -2.597899 -4.473168 -3.535534 -3.535534 
C -4.473168 -2.597899 -5 -1.326016 -5 0 
C -5 1.326016 -4.473168 2.597899 -3.535534 3.535534 
C -2.597899 4.473168 -1.326016 5 0 5 
z
" style="stroke: #ffffff; stroke-width: 0.8"/>
     </defs>
     <g>
      <use xlink:href="#m9c63b36ec1" x="102.03" y="104.642578" style="fill: #80cdc1; stroke: #ffffff; stroke-width: 0.8"/>
     </g>
    </g>
    <g id="text_16">
     <!-- Group II -->
     <g style="fill: #262626" transform="translate(131.73 110.417578) scale(0.165 -0.165)">
      <use xlink:href="#DejaVuSans-47"/>
      <use xlink:href="#DejaVuSans-72" x="77.490234"/>
      <use xlink:href="#DejaVuSans-6f" x="116.353516"/>
      <use xlink:href="#DejaVuSans-75" x="177.535156"/>
      <use xlink:href="#DejaVuSans-70" x="240.914062"/>
      <use xlink:href="#DejaVuSans-20" x="304.390625"/>
      <use xlink:href="#DejaVuSans-49" x="336.177734"/>
      <use xlink:href="#DejaVuSans-49" x="365.669922"/>
     </g>
    </g>
    <g id="line2d_16">
     <defs>
      <path id="m4d0caf44ab" d="M 0 5 
C 1.326016 5 2.597899 4.473168 3.535534 3.535534 
C 4.473168 2.597899 5 1.326016 5 0 
C 5 -1.326016 4.473168 -2.597899 3.535534 -3.535534 
C 2.597899 -4.473168 1.326016 -5 0 -5 
C -1.326016 -5 -2.597899 -4.473168 -3.535534 -3.535534 
C -4.473168 -2.597899 -5 -1.326016 -5 0 
C -5 1.326016 -4.473168 2.597899 -3.535534 3.535534 
C -2.597899 4.473168 -1.326016 5 0 5 
z
" style="stroke: #ffffff; stroke-width: 0.8"/>
     </defs>
     <g>
      <use xlink:href="#m4d0caf44ab" x="102.03" y="128.861484" style="fill: #002721; stroke: #ffffff; stroke-width: 0.8"/>
     </g>
    </g>
    <g id="text_17">
     <!-- +RV -->
     <g style="fill: #262626" transform="translate(131.73 134.636484) scale(0.165 -0.165)">
      <defs>
       <path id="DejaVuSans-2b" d="M 2944 4013 
L 2944 2272 
L 4684 2272 
L 4684 1741 
L 2944 1741 
L 2944 0 
L 2419 0 
L 2419 1741 
L 678 1741 
L 678 2272 
L 2419 2272 
L 2419 4013 
L 2944 4013 
z
" transform="scale(0.015625)"/>
      </defs>
      <use xlink:href="#DejaVuSans-2b"/>
      <use xlink:href="#DejaVuSans-52" x="83.789062"/>
      <use xlink:href="#DejaVuSans-56" x="147.771484"/>
     </g>
    </g>
   </g>
  </g>
 </g>
 <defs>
  <clipPath id="p985c1cf5f9">
   <rect x="70.68" y="32.64" width="638.52" height="488.7"/>
  </clipPath>
 </defs>
</svg>
